<svg version="1" xmlns="http://www.w3.org/2000/svg" width="1621.333" height="1621.333" viewBox="0 0 1216.000000 1216.000000"><path d="M517.5 275.2c-2.8 11.6-21.2 105.4-20.9 106 .3.4 55.9.8 123.5.8 116.7 0 123 .1 122.5 1.7-.3 1-16.8 82.8-36.6 181.8-19.8 99-37.2 184.9-38.7 191-5.1 21.8-15 45.7-25 60.8-6.3 9.5-19.8 23.4-28.1 29-20.3 13.5-40.8 19.1-71.2 19.1-27 0-46.6-4.2-67-14.4-25.1-12.7-41.7-29.2-60.6-60.6-.9-1.6-6.5 3.4-44.7 40-25.8 24.7-43.4 42.3-43 43 .3.6 3.4 5.1 6.8 10.1 29.8 43.1 76.3 72.2 135.5 84.9 23.4 5 36 6.1 70.5 6.1 20.3 0 35.8-.5 42.5-1.3 58.7-7.3 106.5-29.3 139.6-64.4 30.7-32.6 53.6-79.7 69.4-142.8 2.9-11.7 99-489.5 99-492.4 0-.3-83.9-.6-186.5-.6H518l-.5 2.2z"/><path d="M452.6 598.2c-13 65.1-23.6 119.1-23.6 120 0 1.7 1.7 1.8 22.5 1.8 12.4 0 22.5-.1 22.5-.3 0-.4 12.9-63.6 13.5-66.5l.5-2.2h36.6c39.7 0 49.7-.8 66.1-5.6 36.8-10.7 61.1-36.3 67.8-71.7 2.1-10.9 2-29.4 0-38.8-4.3-19.2-16.6-34.3-35.6-43.7-20.2-10-30.2-11.2-96-11.2h-50.6l-23.7 118.2zm128.7-77.8c24.3 4.7 35.5 19.8 32.7 44.2-1.5 13.8-6.4 23.9-15.5 32.2-9.3 8.6-21 13.1-39 15.2-12.8 1.4-63.5 1.3-63.5-.1 0-1.1 16.5-85.9 17.7-90.7l.5-2.2H544c21.8 0 31.8.4 37.3 1.4z"/></svg>