<svg width="447" height="447" viewBox="0 0 447 447" fill="none" xmlns="http://www.w3.org/2000/svg">
<circle cx="223.121" cy="223.121" r="214.121" fill="white" stroke="black" stroke-width="18"/>
<mask id="mask0" mask-type="alpha" maskUnits="userSpaceOnUse" x="0" y="0" width="447" height="447">
<circle cx="223.121" cy="223.121" r="223.121" fill="#C4C4C4"/>
</mask>
<g mask="url(#mask0)">
<path d="M169.57 222.611C169.131 222.603 168.711 222.427 168.398 222.12C168.084 221.812 167.9 221.396 167.883 220.957L168.644 136.106L138.046 121.472C137.754 121.342 137.508 121.127 137.34 120.855C137.172 120.583 137.091 120.266 137.105 119.947C137.108 119.631 137.201 119.323 137.374 119.059C137.546 118.794 137.791 118.585 138.079 118.455L158.878 108.915L137.884 98.0126C137.591 97.8454 137.353 97.5974 137.197 97.2981C137.042 96.9988 136.976 96.661 137.008 96.3253C137.043 95.9901 137.181 95.6737 137.401 95.4185C137.621 95.1634 137.914 94.9816 138.241 94.8976L160.013 89.0246C158.261 85.1633 154.173 76.2402 152.745 72.6385C152.607 72.1838 152.633 71.6953 152.816 71.2571C153 70.819 153.33 70.4584 153.751 70.2374C159.202 67.7714 229.993 85.3255 230.87 85.4878C270.78 93.6646 318.867 104.437 321.236 109.175C324.968 116.637 309.788 207.621 309.398 217.971C309.382 218.397 309.206 218.8 308.905 219.101C308.605 219.402 308.201 219.578 307.776 219.594L169.538 222.579L169.57 222.611ZM142.719 120.012L171.013 133.543C171.292 133.672 171.529 133.878 171.695 134.136C171.862 134.395 171.952 134.695 171.954 135.003L171.193 219.204L306.186 216.284C307.614 175.952 320.814 115.697 318.186 110.667C316.012 108.428 287.361 100.479 229.734 88.7001C184.307 79.4201 164.751 73.612 156.574 73.255C158.942 78.8036 163.777 89.3166 163.81 89.4788C163.913 89.7004 163.967 89.9417 163.967 90.1861C163.968 90.4305 163.916 90.6722 163.814 90.8943C163.712 91.1165 163.563 91.3139 163.378 91.4729C163.192 91.6319 162.974 91.7486 162.739 91.8151L143.27 97.0716L163.453 107.585C163.728 107.732 163.959 107.952 164.119 108.221C164.279 108.49 164.363 108.797 164.361 109.11C164.344 109.426 164.242 109.732 164.065 109.995C163.887 110.258 163.642 110.468 163.355 110.602L142.719 120.012Z" fill="black"/>
<path d="M380.161 478.022L378.447 478.456L378.286 480.217C377.772 485.828 377.765 505.281 378.026 531.05C378.289 556.913 378.826 589.347 379.425 621.094C380.024 652.843 380.686 683.909 381.198 707.039C381.454 718.603 381.673 728.184 381.827 734.873C381.904 738.218 381.966 740.84 382.008 742.626L382.015 742.94C277.977 748.634 192.638 744.033 133.197 737.984C103.248 734.936 79.8745 731.52 63.9989 728.869C56.0612 727.543 49.998 726.408 45.9245 725.606C44.2399 725.275 42.8956 725 41.8998 724.792C47.7409 649.023 53.9739 580.123 58.7624 530.018C61.1795 504.726 63.2285 484.224 64.6731 470.046C65.3954 462.957 65.9666 457.449 66.3572 453.713C66.5525 451.846 66.7026 450.421 66.8039 449.464C66.8243 449.271 66.8428 449.097 66.8592 448.942C66.8835 448.713 66.9034 448.526 66.9188 448.381L66.9478 448.108L66.9551 448.04L66.957 448.023L66.9574 448.018C66.9575 448.018 66.9576 448.017 64.4717 447.751L66.9576 448.017L67.2009 445.742L64.9567 445.299L-16.3498 429.22C-16.0028 428.561 -15.597 427.797 -15.1333 426.935C-13.3311 423.587 -10.6569 418.77 -7.17874 412.911C-0.220446 401.19 9.94501 385.32 22.7721 368.719C48.5008 335.421 84.6119 299.617 126.71 287.973C149.298 282.131 172.66 279.85 195.952 281.214L195.975 281.215L195.999 281.216L196.314 281.228C233.037 282.698 267.426 284.074 296.678 288.407C326.068 292.761 349.831 300.046 365.465 313.04L365.587 313.141L365.721 313.226C374.631 318.896 384.022 330.672 393.189 345.64C402.304 360.521 411.005 378.229 418.638 395.402C426.266 412.564 432.804 429.14 437.597 441.737C439.718 447.311 441.495 452.102 442.877 455.824C443.056 456.308 443.229 456.774 443.395 457.221C444.043 458.966 444.59 460.435 445.026 461.578L380.161 478.022Z" fill="#FF3A43" stroke="black" stroke-width="5"/>
<path d="M174.924 321.49L104.955 741.668L247.152 751.944L277.981 297.436L174.924 321.49Z" fill="#231F20"/>
<path d="M247.152 753.581L104.987 743.305C104.759 743.286 104.537 743.221 104.335 743.114C104.132 743.007 103.954 742.861 103.809 742.683C103.54 742.316 103.422 741.859 103.482 741.407L173.452 321.229C173.497 320.914 173.637 320.62 173.853 320.386C174.07 320.152 174.352 319.99 174.662 319.92L277.752 295.833C277.997 295.77 278.255 295.769 278.501 295.832C278.748 295.895 278.974 296.019 279.159 296.193C279.357 296.354 279.513 296.559 279.616 296.793C279.718 297.026 279.763 297.28 279.748 297.535L248.919 752.043C248.905 752.256 248.849 752.464 248.753 752.655C248.658 752.847 248.525 753.017 248.363 753.156C248.199 753.303 248.008 753.416 247.8 753.489C247.592 753.562 247.372 753.594 247.152 753.581ZM106.886 740.327L245.647 750.374L276.213 299.662L176.332 322.996L106.886 740.327Z" fill="#231F20"/>
<path d="M183.354 258.351L170.263 313.233C170.263 313.233 181.488 350.247 218.698 347.4C229.705 346.465 240.365 343.09 249.904 337.52C259.443 331.949 267.62 324.324 273.843 315.197L289.846 214.071C289.846 214.071 265.596 195.581 282.777 139.193C251.432 147.016 218.56 146.258 187.608 137C187.608 137 161.198 196.89 161.001 225.362C160.805 253.834 183.354 258.351 183.354 258.351Z" fill="white"/>
<path d="M215.734 350.879C180.88 350.879 169.917 315.764 169.688 315.371C169.622 315.091 169.622 314.8 169.688 314.52L182.386 261.143C176.986 259.408 160.23 251.881 160.394 227.009C160.59 198.537 186.051 140.48 187.164 138.025C187.317 137.662 187.598 137.367 187.954 137.198C188.311 137.029 188.717 136.997 189.095 137.109C219.76 146.201 252.293 146.958 283.348 139.301C283.634 139.224 283.935 139.222 284.222 139.297C284.509 139.371 284.772 139.52 284.984 139.727C285.195 139.936 285.343 140.2 285.412 140.489C285.482 140.778 285.469 141.081 285.377 141.363C276.704 169.868 278.831 188.261 282.366 198.668C284.09 204.734 287.427 210.219 292.02 214.54C292.252 214.718 292.431 214.954 292.541 215.224C292.65 215.495 292.685 215.79 292.642 216.078L276.606 317.204C276.585 317.417 276.505 317.621 276.377 317.793C269.99 327.153 261.604 334.976 251.823 340.698C242.043 346.42 231.114 349.898 219.825 350.879C218.418 350.879 217.043 350.879 215.734 350.879ZM172.961 314.88C174.335 319.036 185.757 350.029 219.596 347.607C230.276 346.655 240.618 343.372 249.891 337.988C259.165 332.605 267.145 325.253 273.268 316.451L289.108 216.569C284.984 212.838 267.115 193.104 281.384 143.359C251.04 150.187 219.47 149.309 189.553 140.807C185.691 149.741 163.797 201.711 163.633 227.205C163.437 253.878 183.76 258.394 184.611 258.59C184.83 258.62 185.039 258.7 185.221 258.825C185.403 258.95 185.553 259.116 185.659 259.31C185.783 259.489 185.867 259.693 185.907 259.907C185.946 260.122 185.94 260.342 185.888 260.554L172.961 314.88Z" fill="#231F20"/>
<path d="M270.159 210.645C272.14 205.945 275.583 202.009 279.977 199.419C284.228 197.236 288.822 195.797 293.558 195.165C296.121 194.577 298.784 194.577 301.347 195.165C303.103 195.732 304.728 196.644 306.126 197.848C309.694 200.366 312.238 204.083 313.293 208.321C313.738 211.794 313.322 215.323 312.082 218.597C311.047 222.272 309.528 225.794 307.565 229.07C305.528 232.286 302.871 235.065 299.749 237.245C296.628 239.426 293.105 240.964 289.384 241.771C285.663 242.578 281.818 242.638 278.074 241.946C274.33 241.254 270.761 239.825 267.573 237.742" fill="white"/>
<path d="M283.479 243.895C277.568 243.903 271.782 242.198 266.821 238.986C266.462 238.746 266.213 238.374 266.127 237.951C266.041 237.528 266.126 237.088 266.363 236.728C266.476 236.544 266.625 236.385 266.801 236.26C266.977 236.136 267.176 236.048 267.387 236.002C267.598 235.956 267.816 235.953 268.028 235.993C268.24 236.034 268.442 236.117 268.621 236.237C271.626 238.199 274.991 239.545 278.521 240.195C282.051 240.846 285.674 240.79 289.182 240.028C292.689 239.267 296.011 237.817 298.953 235.761C301.896 233.706 304.4 231.086 306.322 228.055C308.208 224.912 309.672 221.534 310.675 218.008C311.81 214.97 312.202 211.705 311.82 208.484C310.819 204.651 308.502 201.292 305.275 198.994C304.035 197.931 302.602 197.12 301.053 196.605C298.736 196.085 296.333 196.085 294.017 196.605C289.452 197.215 285.026 198.599 280.926 200.696C276.778 203.066 273.524 206.734 271.664 211.135C271.491 211.535 271.166 211.849 270.761 212.008C270.355 212.168 269.904 212.16 269.504 211.986C269.105 211.813 268.791 211.488 268.632 211.082C268.472 210.677 268.48 210.226 268.653 209.826C270.816 204.782 274.561 200.578 279.322 197.848C283.728 195.553 288.502 194.046 293.428 193.397C296.224 192.726 299.14 192.726 301.936 193.397C303.896 194.023 305.71 195.035 307.271 196.376C311.13 199.151 313.851 203.233 314.929 207.863C315.428 211.607 315.001 215.416 313.685 218.957C312.648 222.761 311.095 226.406 309.071 229.79C306.911 233.185 304.102 236.12 300.805 238.428C297.509 240.736 293.79 242.372 289.86 243.24C287.763 243.686 285.623 243.905 283.479 243.895Z" fill="#231F20"/>
<path d="M179.113 287.553C185.602 289.378 192.406 289.79 199.068 288.763C205.729 287.735 212.093 285.292 217.731 281.597C235.992 268.964 236.058 259.899 236.058 259.899C236.058 259.899 208.338 269.717 185.626 261.175L179.113 287.553Z" fill="#231F20"/>
<path d="M192.204 290.989C187.6 291.026 183.014 290.398 178.59 289.123C178.201 288.995 177.874 288.725 177.674 288.368C177.474 288.01 177.415 287.591 177.51 287.192L184.055 260.782C184.192 260.336 184.497 259.96 184.906 259.735C185.113 259.646 185.336 259.601 185.56 259.601C185.785 259.601 186.008 259.646 186.215 259.735C208.109 267.949 235.305 258.524 235.534 258.425C235.785 258.342 236.053 258.319 236.314 258.358C236.576 258.398 236.825 258.5 237.04 258.655C237.256 258.802 237.43 259.003 237.545 259.239C237.66 259.474 237.711 259.735 237.694 259.996C237.694 260.389 237.4 270.011 218.68 282.905C210.899 288.265 201.652 291.088 192.204 290.989ZM181.077 286.407C187.128 287.873 193.415 288.084 199.55 287.026C205.686 285.968 211.539 283.663 216.749 280.254C228.4 272.203 232.36 265.691 233.701 262.353C226.174 264.545 205.295 269.52 186.739 263.334L181.077 286.407Z" fill="#231F20"/>
<path d="M223.72 180.699C223.72 180.699 199.535 204.819 203.004 210.546C206.473 216.273 219.367 215.52 219.367 215.52" fill="white"/>
<path d="M217.829 217.026C213.869 217.026 204.738 216.437 201.466 211.233C197.637 204.884 216.553 185.248 222.443 179.357C222.752 179.049 223.169 178.876 223.605 178.876C224.041 178.876 224.459 179.049 224.767 179.357C225.075 179.665 225.248 180.083 225.248 180.519C225.248 180.955 225.075 181.373 224.767 181.681C212.134 194.281 202.742 207.011 204.28 209.531C206.702 213.524 215.931 213.917 219.269 213.72C219.484 213.707 219.699 213.736 219.903 213.806C220.107 213.877 220.294 213.986 220.456 214.129C220.617 214.272 220.748 214.445 220.842 214.639C220.936 214.833 220.991 215.043 221.003 215.258C221.021 215.474 220.995 215.692 220.927 215.897C220.858 216.103 220.749 216.292 220.605 216.454C220.461 216.616 220.286 216.748 220.09 216.84C219.894 216.933 219.682 216.985 219.465 216.993L217.829 217.026Z" fill="#231F20"/>
<path d="M251.192 183.541C251.599 179.913 249.831 176.737 247.245 176.447C244.658 176.157 242.232 178.864 241.826 182.492C241.419 186.121 243.187 189.297 245.773 189.587C248.36 189.876 250.786 187.17 251.192 183.541Z" fill="#231F20"/>
<path d="M207.261 176.514C208.719 173.167 207.966 169.611 205.58 168.572C203.193 167.533 200.077 169.404 198.62 172.751C197.162 176.099 197.915 179.655 200.301 180.694C202.688 181.733 205.804 179.862 207.261 176.514Z" fill="#231F20"/>
<path d="M239 239.899C238.66 239.643 238.236 239.524 237.812 239.566C217.798 241.786 181.417 224.691 181.046 224.53C180.853 224.436 180.644 224.381 180.43 224.37C180.217 224.358 180.003 224.389 179.801 224.462C179.6 224.534 179.415 224.646 179.257 224.791C179.1 224.935 178.973 225.11 178.884 225.305C178.79 225.498 178.735 225.708 178.722 225.923C178.709 226.137 178.738 226.352 178.808 226.555C178.879 226.759 178.988 226.946 179.131 227.107C179.273 227.268 179.446 227.399 179.639 227.493C181.157 228.203 217.212 245.131 238.067 242.73C238.389 242.694 238.693 242.562 238.94 242.353C239.188 242.143 239.367 241.865 239.456 241.553C239.545 241.241 239.539 240.91 239.44 240.601C239.34 240.292 239.151 240.02 238.896 239.819L239 239.899Z" fill="#231F20"/>
<path d="M258.345 326.366C258.345 326.366 239.854 308.628 234.945 286.93C230.036 265.233 231.934 260.553 228.563 259.8C225.192 259.047 219.498 261.338 215.276 268.734C211.054 276.131 212.2 302.148 219.073 312.621C225.945 323.093 258.345 326.366 258.345 326.366Z" fill="white"/>
<path d="M258.345 327.971H258.181C256.839 327.808 224.931 324.469 217.698 313.473C210.465 302.477 209.222 275.936 213.869 267.885C218.516 259.834 224.669 257.249 228.891 258.067C231.934 258.721 232.163 261.34 233.047 266.87C233.603 270.929 234.421 277.081 236.549 286.506C241.294 307.452 259.294 324.96 259.457 325.124C259.692 325.366 259.851 325.672 259.915 326.003C259.979 326.334 259.945 326.677 259.817 326.989C259.689 327.275 259.482 327.518 259.222 327.692C258.961 327.865 258.657 327.962 258.345 327.971ZM227.32 261.307C224.669 261.307 220.218 263.336 216.683 269.489C213.149 275.641 213.738 301.495 220.447 311.673C224.963 318.579 243.356 322.571 253.992 324.142C248.363 317.924 237.105 303.819 233.374 287.259C231.214 277.768 230.363 271.518 229.807 267.394C229.152 262.649 228.923 261.536 228.203 261.372C227.911 261.326 227.614 261.315 227.32 261.34V261.307Z" fill="#231F20"/>
<path d="M-14.956 433.317C-14.956 433.317 -97.1654 635.601 -66.3369 697.127C-35.5083 758.653 267.704 786.143 267.704 786.143C267.704 786.143 306.256 802.507 318.234 804.994C330.212 807.481 375.637 810.132 375.637 810.132C375.637 810.132 358.488 813.405 364.477 818.674C370.466 823.943 403.749 823.812 407.316 811.834C410.884 799.856 401.327 751.878 390.953 744.155C380.579 736.431 264.17 708.156 255.628 707.337C247.087 706.519 55.21 639.953 55.21 639.953L80.0496 452.102" fill="white"/>
<path d="M380.873 823.65C373.248 823.65 366.212 822.374 363.43 819.984C362.743 819.52 362.21 818.86 361.901 818.09C361.592 817.32 361.52 816.475 361.695 815.665C362.17 814.637 362.851 813.717 363.695 812.963C364.54 812.209 365.53 811.636 366.604 811.279C352.696 810.396 326.711 808.53 317.907 806.632C306.256 804.145 270.846 789.287 267.312 787.814C251.668 786.374 -37.0464 759.276 -67.8095 697.848C-80.9002 671.896 -76.0567 619.304 -53.7698 541.644C-37.4065 483.98 -16.6577 433.221 -16.4613 432.697C-16.2964 432.293 -15.978 431.972 -15.576 431.803C-15.174 431.634 -14.7214 431.632 -14.3178 431.797C-13.9142 431.962 -13.5926 432.28 -13.4238 432.682C-13.2551 433.084 -13.2529 433.537 -13.4178 433.941C-14.236 435.97 -95.0054 636.093 -64.8641 696.409C-34.7229 756.724 264.824 784.312 267.868 784.574C268.019 784.541 268.175 784.541 268.326 784.574C268.719 784.738 306.878 800.938 318.594 803.327C330.311 805.716 375.277 808.399 375.735 808.432C376.13 808.454 376.504 808.619 376.787 808.896C377.069 809.173 377.242 809.543 377.273 809.937C377.292 810.334 377.171 810.724 376.932 811.041C376.693 811.357 376.35 811.581 375.964 811.672C371.023 812.654 365.263 814.945 364.87 816.384C364.87 816.614 365.164 817.039 365.557 817.366C368.83 820.181 384.539 821.752 396.255 818.25C399.986 817.104 404.698 814.977 405.746 811.312C409.215 799.203 399.2 752.404 390.069 745.4C380.939 738.397 265.937 709.925 255.563 708.91C246.89 708.026 62.4754 644.144 54.7519 641.428C54.3983 641.309 54.097 641.071 53.8999 640.755C53.7028 640.438 53.6222 640.063 53.6719 639.693L78.5114 451.809C78.5394 451.594 78.6094 451.387 78.7174 451.199C78.8255 451.011 78.9695 450.847 79.1412 450.715C79.3129 450.582 79.5089 450.485 79.7181 450.429C79.9273 450.372 80.1456 450.358 80.3605 450.386C80.5754 450.414 80.7827 450.484 80.9705 450.592C81.1584 450.7 81.3231 450.844 81.4553 451.015C81.5875 451.187 81.6845 451.383 81.741 451.592C81.7974 451.802 81.8121 452.02 81.7841 452.235L57.1082 638.777C123.772 661.882 249.345 704.983 255.923 705.637C262.501 706.292 380.841 734.371 392.066 742.782C403.291 751.193 412.422 799.956 408.92 812.228C407.775 816.254 403.716 819.428 397.237 821.392C391.914 822.903 386.406 823.663 380.873 823.65Z" fill="#231F20"/>
<path d="M332.798 492.422C332.798 492.422 277.588 351.042 262.075 327.774C246.563 304.505 178.491 247.692 170.015 253.353C161.539 259.015 164.026 265.331 167.561 269.717C171.095 274.102 190.829 287.684 190.829 287.684C190.829 287.684 168.608 277.473 167.921 290.956C167.233 304.44 184.284 312.49 184.284 312.49C184.284 312.49 165.597 298.712 164.877 313.538C164.784 317.861 165.979 322.114 168.31 325.757C170.641 329.399 174.003 332.266 177.968 333.992C177.968 333.992 158.07 317.105 159.968 334.712C163.241 363.642 221.363 398.202 221.363 398.202L246.039 638.644C246.039 638.644 254.875 778.093 343.859 773.871C458.043 768.439 491.129 603.692 434.054 464.375" fill="white"/>
<path d="M339.736 775.377C253.861 775.377 244.305 639.889 244.207 638.514L219.629 398.955C212.625 394.701 161.244 362.629 158.168 334.647C157.645 329.869 158.626 326.793 161.081 325.484C162.572 324.772 164.272 324.632 165.859 325.091C163.798 321.497 162.831 317.38 163.077 313.244C162.961 311.697 163.283 310.149 164.006 308.777C164.73 307.405 165.826 306.265 167.168 305.488C168.62 304.86 170.219 304.655 171.782 304.899C168.131 301.07 166.143 295.952 166.252 290.663C166.242 289.265 166.585 287.888 167.248 286.658C167.912 285.428 168.875 284.385 170.048 283.626C173.558 282.021 177.522 281.708 181.24 282.743C175.951 279.097 170.951 275.049 166.284 270.634C164.923 269.368 163.89 267.79 163.277 266.035C162.664 264.28 162.489 262.402 162.766 260.564C163.043 258.725 163.765 256.983 164.869 255.487C165.972 253.991 167.424 252.787 169.099 251.98C175.317 247.823 200.189 266.772 214.425 278.456C232.785 293.477 255.039 314.291 263.515 326.858C278.93 350.029 332.241 486.041 334.401 491.833C334.55 492.237 334.534 492.683 334.357 493.076C334.179 493.468 333.854 493.774 333.452 493.928C333.255 494.012 333.043 494.055 332.829 494.053C332.615 494.052 332.403 494.008 332.207 493.922C332.011 493.836 331.835 493.711 331.688 493.554C331.542 493.398 331.43 493.213 331.358 493.012C330.801 491.604 276.017 351.567 260.766 328.691C253.665 318.022 234.258 298.844 212.429 280.975C186.019 259.343 173.157 253.354 170.997 254.794C169.768 255.447 168.692 256.353 167.84 257.454C166.988 258.554 166.38 259.823 166.055 261.176C165.999 262.54 166.219 263.901 166.702 265.178C167.186 266.455 167.923 267.621 168.87 268.605C171.652 271.877 186.379 282.481 191.778 286.277C192.111 286.515 192.342 286.869 192.427 287.268C192.512 287.668 192.444 288.085 192.237 288.437C192.041 288.798 191.716 289.07 191.326 289.198C190.937 289.326 190.513 289.299 190.142 289.124C186.542 287.455 176.233 283.79 171.75 286.506C171.033 286.984 170.451 287.639 170.062 288.407C169.672 289.175 169.487 290.031 169.524 290.892C169.132 298.484 175.088 304.31 179.702 307.68C181.583 308.633 183.388 309.727 185.102 310.953C185.412 311.2 185.622 311.552 185.693 311.942C185.763 312.332 185.69 312.735 185.486 313.075C185.282 313.415 184.961 313.669 184.583 313.791C184.206 313.912 183.797 313.892 183.433 313.735C181.505 312.793 179.656 311.699 177.902 310.462C174.63 308.728 170.735 307.55 168.575 308.564C167.233 309.186 166.481 310.855 166.35 313.506C166.195 316.085 166.584 318.667 167.491 321.086C168.399 323.505 169.805 325.706 171.619 327.546C174.167 329.032 176.586 330.729 178.851 332.618C179.146 332.872 179.34 333.222 179.4 333.605C179.46 333.989 179.382 334.381 179.179 334.713C178.974 335.046 178.658 335.296 178.285 335.416C177.913 335.536 177.51 335.519 177.15 335.367C174.45 334.142 171.99 332.447 169.884 330.36C166.906 328.691 164.092 327.676 162.619 328.462C161.146 329.247 161.048 331.178 161.408 334.385C164.452 362.17 221.429 396.304 221.985 396.566C222.208 396.696 222.399 396.876 222.541 397.092C222.683 397.307 222.773 397.553 222.803 397.81L247.479 638.253C247.479 639.693 257.101 776.196 343.565 772.007C379.401 770.305 409.182 752.371 429.767 720.037C468.777 658.805 469.824 556.207 432.352 464.768C432.198 464.368 432.204 463.924 432.368 463.528C432.533 463.132 432.844 462.814 433.236 462.641C433.641 462.486 434.09 462.49 434.491 462.655C434.893 462.819 435.216 463.13 435.396 463.525C473.228 555.912 472.082 659.689 432.516 721.804C411.374 755.021 380.644 773.512 343.728 775.279L339.736 775.377Z" fill="#231F20"/>
<path d="M87.2822 370.514C87.2822 373.95 80.4095 437.898 80.4095 437.898L87.2822 370.514Z" fill="#231F20"/>
<path d="M80.4095 439.502H80.2459C79.8169 439.452 79.4249 439.235 79.1552 438.898C78.8855 438.561 78.7599 438.131 78.806 437.702C80.7041 419.964 85.6458 373.263 85.6458 370.514C85.6458 370.08 85.8182 369.664 86.1251 369.357C86.4319 369.05 86.8482 368.877 87.2822 368.877C87.7161 368.877 88.1323 369.05 88.4392 369.357C88.7461 369.664 88.9185 370.08 88.9185 370.514C88.9185 373.983 82.3732 435.444 82.0786 438.062C82.0298 438.466 81.8317 438.838 81.5229 439.105C81.2142 439.371 80.8171 439.513 80.4095 439.502Z" fill="#231F20"/>
</g>
</svg>
