<svg width="690" height="621" viewBox="0 0 690 621" fill="none" xmlns="http://www.w3.org/2000/svg">
<path d="M329.802 115.287C329.424 115.28 329.063 115.129 328.793 114.864C328.523 114.599 328.365 114.241 328.35 113.863L329.005 53.869L302.683 41.2799C302.431 41.168 302.22 40.9829 302.075 40.7488C301.931 40.5148 301.861 40.2427 301.873 39.968C301.876 39.6964 301.956 39.4311 302.104 39.2036C302.253 38.9761 302.463 38.7958 302.711 38.6839L320.603 30.4773L302.543 21.0983C302.291 20.9546 302.086 20.7411 301.952 20.4837C301.819 20.2262 301.762 19.9356 301.789 19.6468C301.82 19.3584 301.938 19.0863 302.128 18.8668C302.317 18.6473 302.569 18.4909 302.85 18.4186L321.58 13.3663C320.073 10.0445 316.556 5.36826 315.328 2.26984C315.209 1.87863 315.231 1.45844 315.389 1.08148C315.547 0.704523 315.831 0.394345 316.193 0.204238C320.882 -1.9172 381.782 13.1841 382.536 13.3237C416.87 20.3579 458.238 29.6252 460.275 33.7006C463.485 40.1208 450.427 102.391 450.092 111.295C450.078 111.661 449.926 112.008 449.668 112.267C449.409 112.526 449.062 112.677 448.696 112.691L329.774 115.259L329.802 115.287ZM306.702 40.0238L331.043 51.6638C331.283 51.7749 331.487 51.952 331.63 52.1744C331.773 52.3968 331.85 52.6553 331.852 52.9199L331.198 112.356L447.328 109.844C448.556 75.1469 459.912 39.3113 457.651 34.9847C455.781 33.0586 431.133 26.2198 381.559 16.0871C342.48 8.10379 325.656 3.10726 318.621 2.80021C320.659 7.57345 324.818 13.6175 324.846 13.757C324.935 13.9476 324.981 14.1552 324.982 14.3655C324.983 14.5757 324.937 14.7836 324.85 14.9748C324.762 15.1659 324.634 15.3357 324.475 15.4725C324.315 15.6092 324.127 15.7097 323.925 15.7668L307.177 20.2888L324.539 29.3329C324.776 29.4598 324.975 29.649 325.112 29.8802C325.25 30.1114 325.322 30.3757 325.321 30.6448C325.306 30.9171 325.218 31.1803 325.065 31.4064C324.913 31.6325 324.702 31.8131 324.455 31.9288L306.702 40.0238Z" fill="black"/>
<path d="M630.311 617.968H447.987C438.762 617.968 427.089 618.101 413.634 618.253C382.013 618.612 340.548 619.083 297.883 618.208C237.038 616.961 174.002 612.98 133.859 602.102C93.6821 591.215 60.4437 574.566 37.2481 560.637C25.6522 553.673 16.5718 547.393 10.3954 542.857C7.30741 540.589 4.94576 538.758 3.35907 537.497C3.34125 537.482 3.32354 537.468 3.30593 537.454C68.5841 521.387 113.921 468.488 142.977 419.546C157.741 394.677 168.344 370.758 175.257 353.058C178.714 344.206 181.25 336.906 182.922 331.814C183.759 329.269 184.379 327.275 184.791 325.915C184.967 325.337 185.104 324.873 185.205 324.53C185.42 324.444 185.685 324.337 186.001 324.211C186.966 323.824 188.395 323.258 190.244 322.542C193.941 321.109 199.315 319.074 206.017 316.67C219.423 311.862 238.134 305.579 259.357 299.681C301.87 287.865 354.212 277.666 394.18 283.766C434.29 289.887 484.025 308.199 523.812 325.03C543.688 333.438 561.049 341.463 573.441 347.385C579.637 350.346 584.589 352.781 587.991 354.476C589.692 355.323 591.006 355.985 591.894 356.434C591.951 356.463 592.006 356.491 592.059 356.519C591.906 356.935 591.716 357.451 591.492 358.059C590.828 359.861 589.864 362.474 588.662 365.724C586.258 372.224 582.902 381.267 579.096 391.44C571.483 411.789 562.072 436.65 554.871 454.725C547.429 473.406 552.245 491.432 561.148 508.285C565.6 516.713 571.104 524.904 576.671 532.793C578.372 535.203 580.075 537.581 581.757 539.928C585.603 545.296 589.338 550.508 592.672 555.596C602.274 570.247 611.997 586.397 619.323 598.891C622.985 605.136 626.046 610.465 628.192 614.231C629.052 615.742 629.766 617.002 630.311 617.968Z" fill="#FF3A43" stroke="black" stroke-width="3"/>
<path d="M284.405 562.442L268.244 619.372H509.649L490.526 554.701L284.405 562.442Z" fill="#231F20"/>
<path d="M509.648 620.61H268.244C268.056 620.608 267.871 620.563 267.702 620.479C267.534 620.395 267.387 620.274 267.273 620.125C267.165 619.971 267.091 619.797 267.058 619.612C267.024 619.428 267.032 619.238 267.079 619.057L283.24 562.127C283.31 561.88 283.456 561.661 283.656 561.5C283.856 561.339 284.101 561.245 284.357 561.229L490.478 553.488C490.749 553.477 491.015 553.558 491.235 553.716C491.455 553.874 491.616 554.102 491.691 554.362L510.813 619.033C510.874 619.212 510.889 619.405 510.855 619.592C510.821 619.778 510.74 619.954 510.619 620.1C510.51 620.257 510.365 620.385 510.196 620.474C510.027 620.562 509.839 620.609 509.648 620.61ZM269.845 618.183H508.023L489.628 555.963L285.327 563.656L269.845 618.183Z" fill="#231F20"/>
<path d="M687.596 408.931C679.394 388.911 555.488 249.523 519.064 232.197C482.64 214.87 394.479 227.343 394.479 227.343H384.505C384.505 227.343 296.393 214.846 259.945 232.197C223.496 249.547 99.7117 388.935 91.5096 408.931C83.3074 428.927 171.59 498.232 171.59 498.232L211.508 464.526L175.327 408.033L240.847 375.224C240.847 375.224 280.013 479.086 283.653 533.759H495.404C499.044 479.086 538.21 375.224 538.21 375.224L603.73 408.033L567.452 464.526L607.516 498.135C607.516 498.135 695.895 428.975 687.596 408.931Z" fill="white"/>
<path d="M495.477 534.996H283.726C283.41 534.997 283.106 534.876 282.875 534.66C282.645 534.443 282.507 534.147 282.488 533.832C279.115 483.26 244.729 389.154 240.216 376.972L177.122 408.518L212.649 463.846C212.814 464.1 212.881 464.406 212.836 464.706C212.792 465.005 212.639 465.278 212.406 465.472L172.487 499.179C172.266 499.362 171.987 499.463 171.699 499.463C171.411 499.463 171.132 499.362 170.91 499.179C170.692 499.009 148.512 481.61 127.667 461.978C99.2749 435.285 86.729 417.279 90.3447 408.446C98.2557 389.032 221.894 248.917 259.508 231.056C295.908 213.778 381.181 225.596 384.772 226.203H394.479C397.925 225.693 483.222 213.876 519.598 231.056C557.187 248.917 680.85 389.105 688.761 408.446C692.377 417.279 679.806 435.309 651.439 461.978C630.569 481.61 608.414 499.009 608.195 499.179C607.974 499.362 607.695 499.463 607.407 499.463C607.119 499.463 606.84 499.362 606.618 499.179L566.699 465.472C566.467 465.278 566.314 465.005 566.269 464.706C566.224 464.406 566.291 464.1 566.457 463.846L601.983 408.518L538.89 376.972C534.376 389.105 500.063 483.284 496.642 533.832C496.624 534.135 496.496 534.421 496.281 534.636C496.066 534.851 495.78 534.979 495.477 534.996ZM284.891 532.57H494.312C498.389 478.042 536.73 375.904 537.118 374.836C537.252 374.513 537.504 374.253 537.822 374.108C538.148 373.973 538.515 373.973 538.841 374.108L604.361 406.917C604.519 406.993 604.659 407.101 604.772 407.235C604.885 407.369 604.968 407.525 605.016 407.693C605.06 407.866 605.068 408.045 605.038 408.221C605.009 408.396 604.944 408.564 604.847 408.713L569.175 464.283L607.516 496.606C632.414 476.999 692.862 424.971 686.504 409.416C678.666 390.221 555.925 251.076 518.579 233.337C482.907 216.351 395.619 228.484 394.819 228.63H384.651C383.607 228.63 296.32 216.496 260.624 233.337C223.302 251.076 100.464 390.221 92.7229 409.416C86.3408 424.971 146.789 476.999 171.687 496.606L210.004 464.283L174.307 408.713C174.213 408.562 174.151 408.394 174.126 408.219C174.101 408.043 174.113 407.864 174.162 407.693C174.21 407.525 174.293 407.369 174.406 407.235C174.519 407.101 174.659 406.993 174.817 406.917L240.337 374.108C240.495 374.042 240.664 374.008 240.835 374.008C241.005 374.008 241.174 374.042 241.332 374.108C241.495 374.175 241.644 374.274 241.769 374.399C241.894 374.524 241.993 374.673 242.06 374.836C242.472 375.831 280.814 477.97 284.891 532.497V532.57Z" fill="#231F20"/>
<path d="M324.785 229.478C324.785 229.478 342.524 275.584 392.149 276.846C443.886 278.254 454.102 223.047 454.102 223.047L324.785 229.478Z" fill="#231F20"/>
<path d="M393.969 278.084H392.004C342.16 276.725 323.742 230.4 323.547 229.939C323.458 229.771 323.412 229.584 323.412 229.393C323.412 229.203 323.458 229.015 323.547 228.847C323.649 228.685 323.788 228.55 323.952 228.452C324.117 228.355 324.303 228.299 324.494 228.289L453.811 221.858C453.992 221.856 454.173 221.892 454.34 221.963C454.507 222.034 454.657 222.139 454.782 222.271C454.898 222.411 454.985 222.574 455.035 222.75C455.085 222.925 455.098 223.109 455.073 223.29C455.17 223.921 444.565 278.084 393.969 278.084ZM326.484 230.594C330.148 238.578 349.003 274.469 392.004 275.633C437.382 276.847 450.244 233.094 452.403 224.334L326.484 230.594Z" fill="#231F20"/>
<path d="M368.895 257.345C370.087 257.759 371.14 258.13 372.038 258.449C365.257 253.54 350.284 241.348 351.187 229.988C351.869 221.641 351.894 213.253 351.264 204.902C351.234 204.918 351.217 204.925 351.217 204.925L351.215 204.925L351.208 204.926L351.179 204.927L351.061 204.931C350.957 204.934 350.8 204.94 350.594 204.948C350.496 204.952 350.386 204.956 350.266 204.961M368.895 257.345C366.85 255.762 364.472 253.794 362.111 251.559C358.993 248.606 355.877 245.16 353.61 241.494C351.349 237.837 349.876 233.87 350.19 229.909L350.19 229.907C350.868 221.606 350.893 213.265 350.266 204.961M368.895 257.345C367.619 256.901 366.182 256.407 364.605 255.873C357.779 253.563 348.317 250.5 337.775 247.496C316.738 241.502 291.236 235.689 273.819 236.634C256.343 237.581 241.547 244.961 231.146 252.067C226.163 255.472 222.176 258.823 219.371 261.393M368.895 257.345C369.556 257.857 370.182 258.328 370.762 258.755C371.042 258.962 371.311 259.158 371.568 259.344C357.047 254.189 303.473 236.027 273.874 237.632C245.633 239.164 224.402 257.743 217.658 264.399L351.187 203.926M350.266 204.961C349.88 204.978 349.382 205 348.78 205.03C347.199 205.11 344.899 205.243 342.03 205.456C336.292 205.883 328.281 206.633 319.193 207.925C300.991 210.511 278.566 215.256 261.412 223.869C244.257 232.482 232.972 243.327 225.979 252.007C223.072 255.615 220.907 258.85 219.371 261.393M350.266 204.961C350.241 204.643 350.216 204.325 350.19 204.007L351.187 203.926M351.187 203.926C351.187 203.926 295.568 205.6 260.964 222.975C233.372 236.829 220.807 256.422 216.848 263.794C217.45 263.198 218.17 262.503 219.004 261.731C219.124 261.62 219.246 261.507 219.371 261.393M351.187 203.926L219.371 261.393" fill="#FF3A43" stroke="black" stroke-width="2"/>
<path d="M413.475 257.592C415.028 256.188 416.808 254.458 418.57 252.481C423.39 247.075 428.295 239.593 427.678 231.826C427.096 224.5 426.562 217.296 426.174 211.922C425.98 209.235 425.822 207.007 425.713 205.45C425.677 204.934 425.646 204.492 425.621 204.132C426.018 204.154 426.515 204.182 427.107 204.219C428.795 204.323 431.246 204.49 434.296 204.746C440.398 205.257 448.894 206.12 458.468 207.524C477.644 210.335 501.038 215.305 518.203 223.917C535.389 232.54 545.032 241.87 550.372 248.994C553.043 252.558 554.642 255.576 555.57 257.687C555.589 257.73 555.608 257.773 555.626 257.815C539.929 245.913 521.005 238.961 501.282 237.895L501.281 237.895C483.863 236.975 460.432 242.485 441.451 248.173C431.94 251.024 423.511 253.931 417.458 256.125C415.983 256.66 414.649 257.153 413.475 257.592Z" fill="#FF3A43" stroke="black" stroke-width="2"/>
<path d="M499.481 525.557H278.727V570.79H499.481V525.557Z" fill="#FF8A8F"/>
<path d="M203.791 447.903L162.101 501.63L219.492 533.759C219.492 533.759 245.287 563.558 262.201 570.79C289.865 582.608 290.569 578.07 291.928 566.543C293.287 555.016 276.883 528.275 276.883 528.275L282.974 525.557C282.974 525.557 267.322 518.034 258.44 509.832C249.558 501.63 203.791 447.903 203.791 447.903Z" fill="#231F20"/>
<path d="M284.551 578.967C280.062 578.967 273.073 576.734 261.716 571.905C245.215 564.843 221.021 537.325 218.716 534.704L161.519 502.696C161.363 502.613 161.227 502.495 161.122 502.353C161.017 502.21 160.946 502.045 160.912 501.871C160.878 501.702 160.882 501.527 160.924 501.359C160.966 501.191 161.045 501.034 161.155 500.901L202.821 447.174C202.935 447.033 203.079 446.918 203.243 446.838C203.406 446.758 203.585 446.716 203.767 446.713C203.946 446.705 204.125 446.737 204.289 446.809C204.453 446.88 204.598 446.989 204.714 447.126C205.175 447.66 250.553 500.901 259.265 508.957C267.977 517.014 283.338 524.415 283.532 524.488C283.742 524.582 283.921 524.735 284.046 524.929C284.171 525.123 284.237 525.349 284.236 525.58C284.229 525.812 284.157 526.037 284.028 526.23C283.899 526.423 283.719 526.576 283.508 526.672L278.654 528.856C281.857 534.243 294.403 556.107 293.214 566.712C292.583 571.978 292.098 576.127 288.846 578.02C287.524 578.713 286.041 579.04 284.551 578.967ZM163.921 501.313L220.099 532.86C220.215 532.936 220.32 533.025 220.414 533.127C220.681 533.418 246.21 562.805 262.687 569.842C277.053 575.958 284.527 577.826 287.56 576.055C289.647 574.841 290.132 571.662 290.715 566.566C292.025 555.501 276.155 529.341 275.864 529.099C275.767 528.954 275.706 528.788 275.685 528.616C275.664 528.443 275.683 528.268 275.742 528.104C275.79 527.938 275.874 527.785 275.987 527.655C276.1 527.526 276.24 527.422 276.397 527.351L280.134 525.653C272.068 521.647 264.508 516.694 257.615 510.899C249.389 503.303 210.659 457.997 203.84 449.989L163.921 501.313Z" fill="#231F20"/>
<path d="M573.931 447.903L615.621 501.63L558.23 533.759C558.23 533.759 532.435 563.558 515.521 570.79C487.857 582.608 487.153 578.07 485.794 566.543C484.435 555.016 500.84 528.275 500.84 528.275L494.749 525.557C494.749 525.557 510.401 518.034 519.282 509.832C528.164 501.63 573.931 447.903 573.931 447.903Z" fill="#231F20"/>
<path d="M493.171 578.967C491.703 579.02 490.247 578.685 488.949 577.997C485.697 576.104 485.212 571.954 484.581 566.688C483.343 556.084 495.889 534.22 499.141 528.832L494.288 526.648C494.076 526.553 493.896 526.4 493.767 526.207C493.638 526.014 493.566 525.788 493.56 525.556C493.558 525.326 493.624 525.1 493.749 524.906C493.874 524.712 494.053 524.559 494.263 524.464C494.409 524.464 509.843 516.918 518.53 508.934C527.218 500.95 572.621 447.636 573.082 447.102C573.197 446.965 573.342 446.857 573.507 446.786C573.671 446.714 573.849 446.681 574.028 446.69C574.21 446.692 574.389 446.735 574.553 446.815C574.716 446.894 574.86 447.009 574.974 447.151L616.64 500.902C616.75 501.035 616.829 501.192 616.871 501.36C616.913 501.527 616.917 501.703 616.883 501.872C616.85 502.046 616.778 502.211 616.673 502.353C616.568 502.496 616.432 502.614 616.276 502.697L558.983 534.705C556.677 537.326 532.483 564.844 515.982 571.906C504.65 576.735 497.661 578.967 493.171 578.967ZM497.588 525.581L501.325 527.279C501.482 527.35 501.622 527.454 501.735 527.584C501.848 527.713 501.932 527.866 501.98 528.032C502.057 528.186 502.097 528.356 502.097 528.529C502.097 528.702 502.057 528.872 501.98 529.027C501.81 529.269 485.819 555.429 487.129 566.494C487.711 571.59 488.197 574.769 490.284 575.983C493.366 577.754 500.791 575.983 515.157 569.77C531.634 562.733 557.163 533.37 557.43 533.055C557.523 532.953 557.629 532.864 557.745 532.788L613.922 501.241L574.004 449.796C567.185 457.804 528.455 503.183 520.229 510.705C513.299 516.517 505.698 521.479 497.588 525.484V525.581Z" fill="#231F20"/>
<path d="M343.009 125.278C339.636 104.311 304.838 99.1668 306.609 123.87C306.866 132.455 310.149 140.672 315.879 147.069C321.849 153.136 331.458 155.999 339.224 152.529" fill="white"/>
<path d="M331.944 155.271C328.773 155.235 325.64 154.574 322.725 153.324C319.81 152.075 317.17 150.263 314.957 147.991C307.871 140.711 305.809 131.005 305.25 124.016C304.425 112.174 311.608 107.029 318.621 106.277C329.105 105.063 342.136 112.538 344.174 125.132C344.223 125.46 344.141 125.794 343.946 126.062C343.751 126.33 343.458 126.51 343.131 126.564C342.968 126.595 342.8 126.592 342.638 126.556C342.476 126.52 342.323 126.45 342.189 126.352C342.054 126.255 341.942 126.13 341.857 125.987C341.773 125.844 341.719 125.685 341.699 125.52C339.903 114.309 328.207 107.709 318.913 108.776C311.317 109.65 307.143 115.28 307.75 123.822C308.187 130.374 310.177 139.571 316.656 146.244C322.698 152.383 331.725 154.519 338.496 151.437C338.798 151.302 339.142 151.292 339.452 151.411C339.761 151.529 340.011 151.765 340.146 152.068C340.281 152.37 340.291 152.714 340.172 153.024C340.054 153.333 339.817 153.583 339.515 153.718C337.126 154.753 334.548 155.282 331.944 155.271Z" fill="#231F20"/>
<path d="M429.738 125.278C433.087 104.311 467.886 99.1668 466.138 123.87C465.882 132.455 462.599 140.672 456.869 147.069C450.899 153.136 441.289 155.999 433.524 152.529" fill="white"/>
<path d="M440.804 155.271C438.131 155.294 435.484 154.748 433.039 153.67C432.888 153.604 432.752 153.509 432.638 153.39C432.524 153.271 432.436 153.131 432.377 152.977C432.318 152.823 432.291 152.66 432.296 152.495C432.301 152.331 432.339 152.169 432.408 152.02C432.545 151.719 432.795 151.485 433.104 151.367C433.412 151.249 433.755 151.257 434.058 151.389C440.95 154.471 449.953 152.335 455.898 146.196C462.45 139.522 464.367 130.325 464.828 123.773C465.41 115.231 461.236 109.601 453.641 108.728C444.323 107.636 432.65 114.285 430.879 125.472C430.856 125.638 430.799 125.797 430.712 125.94C430.625 126.084 430.51 126.208 430.374 126.305C430.238 126.403 430.084 126.472 429.92 126.508C429.757 126.544 429.587 126.547 429.423 126.515C429.26 126.492 429.104 126.436 428.964 126.35C428.823 126.265 428.702 126.152 428.606 126.018C428.511 125.884 428.444 125.732 428.409 125.572C428.374 125.411 428.372 125.245 428.404 125.084C430.418 112.489 443.498 105.039 453.932 106.228C460.945 107.053 468.128 112.125 467.303 123.967C466.842 130.932 464.877 140.736 457.597 147.943C453.172 152.486 447.144 155.117 440.804 155.271Z" fill="#231F20"/>
<path d="M426.681 230.037C426.681 230.037 417.265 250.615 389.795 250.615C382.137 250.824 374.555 249.045 367.788 245.451C361.022 241.858 355.302 236.572 351.187 230.109L352.352 215.549L355.046 181.576L357.472 149.738H420.177L422.264 175.776L422.895 184.221L426.681 230.037Z" fill="white"/>
<path d="M389.795 251.803C381.922 251.96 374.139 250.098 367.189 246.394C360.24 242.689 354.355 237.267 350.095 230.643C349.975 230.429 349.924 230.183 349.95 229.939L356.356 149.374C356.375 149.058 356.513 148.762 356.743 148.545C356.973 148.329 357.278 148.208 357.594 148.209H420.299C420.615 148.208 420.919 148.329 421.149 148.545C421.379 148.762 421.518 149.058 421.536 149.374L427.943 229.939C427.951 230.156 427.91 230.372 427.821 230.57C427.724 230.764 417.751 251.803 389.795 251.803ZM352.473 229.745C356.557 235.861 362.119 240.847 368.643 244.241C375.168 247.634 382.443 249.326 389.795 249.158C414.669 249.158 424.133 232.172 425.419 229.745L419.134 150.684H358.758L352.473 229.745Z" fill="#231F20"/>
<path d="M423.089 183.954C417.828 191.59 410.748 197.795 402.487 202.009C388.995 209.483 368.805 217.879 352.425 215.38L355.118 181.406C367.119 182.91 379.256 182.991 391.276 181.649C401.856 180.727 412.752 179.683 422.458 175.606L423.089 183.954Z" fill="#231F20"/>
<path d="M358.589 217.03C356.437 217.036 354.287 216.882 352.158 216.569C351.858 216.521 351.587 216.362 351.398 216.124C351.209 215.886 351.117 215.586 351.139 215.283L353.832 181.309C353.845 181.144 353.893 180.982 353.973 180.836C354.052 180.69 354.161 180.562 354.293 180.46C354.541 180.288 354.843 180.211 355.143 180.242C367.047 181.743 379.087 181.817 391.009 180.46C400.861 179.611 412.024 178.64 421.852 174.515C422.02 174.426 422.207 174.379 422.398 174.379C422.588 174.379 422.776 174.426 422.944 174.515C423.107 174.611 423.246 174.745 423.347 174.905C423.448 175.066 423.51 175.248 423.526 175.437L424.157 183.882C424.168 184.139 424.1 184.393 423.963 184.61C418.623 192.444 411.385 198.798 402.924 203.077C393.071 208.561 375.09 217.03 358.589 217.03ZM353.735 214.336C370.843 216.423 391.179 206.911 401.929 200.941C409.899 196.902 416.751 190.959 421.876 183.639L421.391 177.257C411.684 180.994 400.91 181.916 391.397 182.765C379.722 184.102 367.934 184.102 356.259 182.765L353.735 214.336Z" fill="#231F20"/>
<path d="M390.766 189.341H385.161C372.443 189.334 360.246 184.286 351.244 175.302C342.242 166.318 337.169 154.132 337.137 141.414V65.2168L392.441 78.9275L438.814 65.2168V141.414C438.782 154.136 433.706 166.326 424.698 175.311C415.691 184.295 403.488 189.341 390.766 189.341Z" fill="white"/>
<path d="M390.766 190.579H385.161C372.114 190.567 359.604 185.387 350.367 176.173C341.131 166.959 335.92 154.461 335.875 141.415V65.2177C335.873 65.0256 335.916 64.8357 336 64.663C336.084 64.4903 336.208 64.3396 336.36 64.2228C336.511 64.1089 336.685 64.0302 336.869 63.9924C337.054 63.9546 337.245 63.9587 337.428 64.0044L392.416 77.6423L438.523 64.0287C438.711 63.9678 438.911 63.9536 439.105 63.9874C439.3 64.0213 439.483 64.1021 439.639 64.2228C439.795 64.3384 439.922 64.4882 440.01 64.6608C440.099 64.8333 440.146 65.0239 440.149 65.2177V141.415C440.097 154.476 434.871 166.985 425.615 176.2C416.359 185.415 403.827 190.586 390.766 190.579ZM338.374 66.8193V141.415C338.387 153.82 343.321 165.712 352.092 174.484C360.863 183.255 372.756 188.188 385.161 188.201H390.766C403.185 188.208 415.099 183.284 423.89 174.511C432.681 165.738 437.63 153.834 437.649 141.415V66.8921L392.853 80.1417C392.639 80.2018 392.412 80.2018 392.198 80.1417L338.374 66.8193Z" fill="#231F20"/>
<path d="M335.001 104.165V99.7971L335.899 99.5302L344.053 97.8315C348.43 96.7622 352.918 96.2084 357.424 96.1814C363.922 96.3814 370.38 97.268 376.691 98.8264C383.325 100.518 390.247 100.75 396.978 99.5059C401.832 98.5838 406.879 97.6374 411.854 96.7881C415.547 96.1531 419.306 95.99 423.041 96.3027C428.768 97.0686 434.442 98.1952 440.027 99.6758C440.408 99.7302 440.752 99.9302 440.987 100.234C441.223 100.537 441.331 100.92 441.289 101.302C441.289 102.588 441.289 103.728 441.289 105.112C441.314 105.447 441.243 105.783 441.084 106.079C440.925 106.376 440.685 106.621 440.391 106.786C439.383 107.414 438.614 108.363 438.207 109.48C437.894 110.214 437.626 110.968 437.407 111.736C436.606 114.624 435.902 117.512 434.98 120.375C434.253 123.021 432.871 125.442 430.963 127.413C429.054 129.385 426.681 130.845 424.06 131.659C420.071 133.013 415.799 133.314 411.66 132.533C408.59 132.108 405.666 130.955 403.133 129.169C400.6 127.383 398.531 125.017 397.1 122.268C395.686 119.552 394.533 116.708 393.654 113.775C393.181 112.468 392.571 111.216 391.834 110.038C391.492 109.549 390.982 109.204 390.402 109.067C389.399 108.912 388.383 108.856 387.369 108.897C386.896 108.867 386.426 108.99 386.028 109.248C385.63 109.506 385.326 109.885 385.161 110.329C384.596 111.575 384.133 112.866 383.777 114.187C382.831 117.858 381.182 121.31 378.924 124.355C376.605 128.085 373.008 130.845 368.805 132.12C367.213 132.526 365.589 132.794 363.951 132.921C359.325 133.42 354.647 132.761 350.338 131.004C347.566 130.002 345.288 127.968 343.98 125.326C342.085 121.132 340.59 116.769 339.515 112.294C339.173 110.663 338.383 109.159 337.234 107.951C336.098 106.965 335.314 105.636 335.001 104.165Z" fill="#231F20"/>
<path d="M389.116 152.457C386.683 152.459 384.253 152.321 381.836 152.044C381.673 152.023 381.515 151.97 381.373 151.888C381.231 151.805 381.106 151.695 381.007 151.564C380.907 151.433 380.835 151.284 380.794 151.124C380.753 150.965 380.744 150.799 380.768 150.637C380.786 150.474 380.836 150.318 380.916 150.175C380.996 150.033 381.104 149.908 381.233 149.809C381.362 149.709 381.51 149.636 381.668 149.595C381.826 149.554 381.99 149.545 382.151 149.569C386.685 150.045 391.256 150.045 395.789 149.569C395.883 149.549 395.971 149.508 396.047 149.449C396.123 149.391 396.184 149.315 396.226 149.229C398.483 145.468 392.562 126.467 388.291 115.256C388.172 114.944 388.183 114.597 388.319 114.292C388.455 113.988 388.707 113.749 389.019 113.63C389.172 113.572 389.335 113.544 389.498 113.549C389.662 113.555 389.823 113.592 389.972 113.66C390.121 113.727 390.255 113.824 390.366 113.944C390.477 114.064 390.564 114.204 390.621 114.358C391.81 117.415 401.977 144.4 398.386 150.418C398.148 150.831 397.819 151.183 397.423 151.448C397.028 151.713 396.577 151.884 396.105 151.947C393.788 152.257 391.454 152.427 389.116 152.457Z" fill="#231F20"/>
<path d="M371.498 167.284C371.209 167.282 370.929 167.18 370.707 166.994C370.486 166.807 370.336 166.549 370.285 166.264C370.254 166.103 370.254 165.938 370.287 165.777C370.32 165.616 370.385 165.464 370.478 165.328C370.57 165.193 370.689 165.077 370.827 164.988C370.964 164.898 371.118 164.838 371.28 164.808C372.202 164.614 394.358 160.44 408.384 163.959C408.544 163.996 408.695 164.065 408.828 164.161C408.961 164.257 409.074 164.378 409.16 164.518C409.246 164.658 409.303 164.814 409.328 164.976C409.353 165.139 409.346 165.304 409.306 165.464C409.266 165.625 409.195 165.776 409.097 165.91C408.998 166.043 408.875 166.156 408.733 166.241C408.591 166.327 408.433 166.384 408.269 166.409C408.105 166.433 407.938 166.426 407.777 166.386C394.285 163.013 371.984 167.235 371.741 167.259L371.498 167.284Z" fill="#231F20"/>
<path d="M389.116 444.966C345.048 444.966 309.206 415.093 309.206 378.378C309.206 341.662 345.048 311.814 389.116 311.814C433.184 311.814 469.026 341.662 469.026 378.378C469.026 415.093 433.184 444.966 389.116 444.966ZM389.116 314.241C346.382 314.241 311.633 343.021 311.633 378.378C311.633 413.734 346.382 442.539 389.116 442.539C431.85 442.539 466.6 413.759 466.6 378.378C466.6 342.997 431.85 314.241 389.116 314.241Z" fill="#FF3A43"/>
<path d="M240.919 376.485C240.591 376.485 240.277 376.354 240.046 376.121C227.379 363.818 222.331 346.249 222.113 345.521C222.03 345.2 222.074 344.858 222.237 344.569C222.4 344.279 222.668 344.064 222.986 343.968C223.146 343.92 223.313 343.905 223.478 343.924C223.644 343.942 223.804 343.993 223.949 344.075C224.093 344.156 224.221 344.266 224.322 344.398C224.424 344.53 224.498 344.681 224.539 344.842C224.539 345.012 229.611 362.484 241.793 374.326C242.02 374.565 242.147 374.882 242.147 375.211C242.147 375.541 242.02 375.858 241.793 376.097C241.564 376.336 241.25 376.476 240.919 376.485Z" fill="#231F20"/>
<path d="M538.283 376.486C538.027 376.492 537.775 376.418 537.563 376.275C537.351 376.132 537.188 375.926 537.097 375.686C537.007 375.447 536.993 375.185 537.058 374.937C537.122 374.689 537.262 374.467 537.458 374.302C537.604 374.157 546.291 366.173 554.639 337.174C554.685 337.015 554.762 336.866 554.866 336.737C554.97 336.607 555.098 336.499 555.243 336.419C555.388 336.339 555.548 336.289 555.713 336.27C555.878 336.252 556.045 336.266 556.204 336.313C556.363 336.359 556.512 336.436 556.642 336.54C556.771 336.643 556.879 336.772 556.959 336.917C557.039 337.062 557.09 337.222 557.108 337.387C557.126 337.552 557.112 337.719 557.066 337.878C548.427 367.847 539.496 375.855 539.132 376.171C538.901 376.382 538.596 376.495 538.283 376.486Z" fill="#231F20"/>
<path d="M381.631 407.868C377.232 407.868 373.44 407.087 370.256 405.524C367.072 403.961 364.612 401.732 362.875 398.838L370.517 391.543C372.948 396.059 376.711 398.317 381.805 398.317C384.873 398.317 387.305 397.477 389.099 395.798C390.952 394.062 392.254 391.37 393.007 387.723L399.433 355.681H377.724L379.634 346.216H412.371L404.208 387.115C402.703 394.583 400.127 399.909 396.48 403.092C392.833 406.276 387.884 407.868 381.631 407.868Z" fill="#FF3A43"/>
<path d="M384.102 364.976C386.645 364.976 388.606 365.537 389.988 366.658C391.389 367.759 392.09 369.31 392.09 371.312C392.09 373.094 391.679 374.635 390.858 375.936C390.058 377.218 388.897 378.209 387.375 378.909C385.874 379.59 384.102 379.93 382.06 379.93H376.926L375.695 385.996H371.791L375.995 364.976H384.102ZM382.211 376.627C384.112 376.627 385.574 376.207 386.595 375.366C387.636 374.505 388.156 373.274 388.156 371.673C388.156 370.552 387.766 369.711 386.985 369.15C386.224 368.57 385.123 368.279 383.682 368.279H379.238L377.586 376.627H382.211Z" fill="black"/>
</svg>
