<svg width="716" height="728" viewBox="0 0 716 728" fill="none" xmlns="http://www.w3.org/2000/svg">
<path d="M5.64587 493.754L325.803 95.0748L391.428 1L386.497 46.52L444.914 18.8287L404.326 69.6594L475.64 39.3127L59.1319 557.483V519.17L5.64587 575.311L59.1319 473.65L5.64587 493.754Z" fill="#FF3A43" stroke="black" stroke-width="3.03467"/>
<path d="M317.837 650.423L374.95 207.358L382.538 104.892L394.786 148.843L420.227 110.476L413.082 166.917L445.292 123.339L370.828 699.281L358.055 663.16L345.026 727.315L342.88 620.243L317.837 650.423Z" fill="#FF3A43" stroke="black" stroke-width="3.03467"/>
<path d="M244.626 536.687L565.042 392.383L630.72 358.333L625.785 374.809L684.249 364.786L643.628 383.184L715 372.2L298.155 559.754V545.887L244.626 566.207L298.155 529.41L244.626 536.687Z" fill="#FF3A43" stroke="black" stroke-width="3.03467"/>
<path d="M541.254 371.28C541.254 416.844 527.742 461.385 502.428 499.271C477.114 537.156 441.133 566.684 399.037 584.121C356.941 601.558 310.62 606.12 265.931 597.231C221.242 588.342 180.193 566.4 147.974 534.182C115.755 501.963 93.8133 460.913 84.9241 416.224C76.0349 371.535 80.5972 325.214 98.0339 283.118C115.471 241.022 144.999 205.042 182.884 179.727C220.77 154.413 265.311 140.902 310.876 140.902C341.174 140.742 371.203 146.593 399.225 158.114C427.248 169.635 452.708 186.599 474.132 208.023C495.556 229.447 512.52 254.907 524.041 282.93C535.562 310.952 541.413 340.981 541.254 371.28Z" fill="white"/>
<path d="M310.778 140.805C356.343 140.805 400.884 154.316 438.769 179.631C476.655 204.945 506.183 240.925 523.62 283.021C541.056 325.117 545.619 371.438 536.73 416.127C527.84 460.816 505.899 501.866 473.68 534.085C441.461 566.304 400.412 588.245 355.723 597.134C311.034 606.023 264.712 601.461 222.616 584.024C180.52 566.588 144.54 537.06 119.226 499.174C93.9116 461.289 80.4001 416.747 80.4001 371.183C80.4001 310.083 104.672 251.485 147.876 208.281C191.081 165.077 249.678 140.805 310.778 140.805ZM310.778 137.56C248.79 137.637 189.362 162.296 145.53 206.129C101.697 249.962 77.038 309.389 76.9607 371.378C76.9607 433.39 101.595 492.862 145.444 536.711C189.294 580.561 248.766 605.195 310.778 605.195C372.79 605.195 432.263 580.561 476.112 536.711C519.961 492.862 544.596 433.39 544.596 371.378C544.527 309.386 519.871 249.954 476.036 206.119C432.202 162.285 372.769 137.629 310.778 137.56Z" fill="black"/>
<path d="M394.753 338.476C394.753 338.476 398.387 237.888 394.753 230.49C391.118 223.092 212.494 188.113 214.311 192.559C216.129 197.004 222.391 210.827 222.391 210.827L198.672 217.316L222.683 229.809L198.769 240.776L230.308 255.832L232.579 341.72L394.753 338.476Z" fill="white"/>
<path d="M232.579 343.181C232.14 343.173 231.72 342.997 231.406 342.69C231.093 342.382 230.909 341.966 230.892 341.526L228.653 256.676L198.055 242.042C197.763 241.912 197.517 241.697 197.349 241.425C197.181 241.153 197.099 240.836 197.114 240.517C197.117 240.201 197.21 239.893 197.383 239.628C197.555 239.364 197.8 239.154 198.088 239.024L218.886 229.485L197.893 218.582C197.6 218.415 197.361 218.167 197.206 217.868C197.051 217.569 196.985 217.231 197.017 216.895C197.052 216.56 197.19 216.244 197.41 215.988C197.63 215.733 197.923 215.551 198.25 215.467L220.022 209.594C218.27 205.733 214.182 196.81 212.754 193.208C212.616 192.754 212.642 192.265 212.825 191.827C213.009 191.389 213.339 191.028 213.76 190.807C219.211 188.341 305.002 205.895 305.879 206.058C345.789 214.234 393.876 225.007 396.245 229.744C399.977 237.207 396.797 328.19 396.407 338.541C396.391 338.966 396.215 339.37 395.914 339.671C395.614 339.971 395.21 340.148 394.785 340.164L232.547 343.149L232.579 343.181ZM202.728 240.582L231.022 254.113C231.301 254.242 231.538 254.448 231.704 254.706C231.871 254.965 231.961 255.265 231.963 255.573L234.202 339.774L393.195 336.854C394.623 296.522 395.823 236.266 393.195 231.237C391.021 228.998 362.37 221.048 304.743 209.27C259.316 199.99 224.76 194.182 216.583 193.825C218.951 199.373 223.786 209.886 223.818 210.049C223.922 210.27 223.976 210.512 223.976 210.756C223.977 211 223.925 211.242 223.823 211.464C223.721 211.686 223.572 211.884 223.387 212.043C223.201 212.202 222.983 212.318 222.748 212.385L203.279 217.641L223.462 228.154C223.737 228.302 223.968 228.522 224.128 228.791C224.288 229.059 224.372 229.367 224.37 229.679C224.353 229.996 224.251 230.302 224.073 230.565C223.896 230.828 223.651 231.037 223.364 231.172L202.728 240.582Z" fill="black"/>
<path d="M488.163 515.271C469.663 538.098 446.921 557.14 421.185 571.345C394.83 585.892 365.856 595.078 335.933 598.373L335.933 598.373C319.225 600.217 302.364 600.217 285.656 598.373L285.656 598.373C255.737 595.076 226.766 585.893 200.411 571.353C174.676 557.153 151.932 538.119 133.425 515.302C164.842 493.308 199.473 476.301 236.094 464.887C284.748 449.779 336.839 449.779 385.493 464.887C422.105 476.311 456.734 493.306 488.163 515.271Z" fill="#FF3A43" stroke="black" stroke-width="4"/>
<path d="M367.432 342.305C371.812 314.919 417.304 308.17 415.032 340.455C414.709 351.671 410.421 362.409 402.929 370.761C395.142 378.679 382.585 382.443 372.429 377.9" fill="white"/>
<path d="M381.903 381.534C378.407 381.559 374.945 380.84 371.747 379.425C371.545 379.337 371.363 379.21 371.211 379.051C371.059 378.892 370.941 378.704 370.862 378.498C370.784 378.293 370.747 378.074 370.754 377.854C370.761 377.634 370.812 377.418 370.904 377.218C371.088 376.817 371.422 376.504 371.834 376.346C372.247 376.188 372.705 376.198 373.11 376.375C382.098 380.398 393.844 377.608 401.729 369.593C410.262 360.897 412.793 348.891 413.377 340.39C414.156 329.228 408.705 321.895 398.808 320.922C386.641 319.559 371.423 328.157 369.086 342.791C369.015 343.229 368.773 343.62 368.415 343.881C368.057 344.142 367.61 344.252 367.172 344.187C366.735 344.115 366.343 343.874 366.082 343.515C365.821 343.157 365.711 342.711 365.777 342.272C368.437 325.789 385.505 316.022 399.198 317.612C408.38 318.65 417.79 325.302 416.72 340.78C416.071 349.897 413.475 362.747 404.13 372.156C398.252 378.098 390.261 381.47 381.903 381.534Z" fill="black"/>
<path d="M254.125 342.305C249.744 314.919 204.285 308.17 206.524 340.455C206.873 351.672 211.171 362.404 218.66 370.761C226.447 378.679 239.004 382.443 249.16 377.9" fill="white"/>
<path d="M239.653 381.534C235.494 381.457 231.392 380.557 227.583 378.886C223.773 377.216 220.333 374.807 217.459 371.8C208.179 362.39 205.486 349.541 204.869 340.423C203.766 324.946 213.208 318.294 222.391 317.255C236.051 315.666 253.151 325.432 255.779 341.916C255.844 342.141 255.86 342.377 255.826 342.608C255.792 342.84 255.71 343.062 255.584 343.259C255.459 343.456 255.292 343.625 255.097 343.753C254.901 343.882 254.681 343.967 254.45 344.004C254.219 344.041 253.982 344.029 253.757 343.968C253.531 343.907 253.32 343.798 253.139 343.65C252.958 343.502 252.811 343.317 252.707 343.107C252.603 342.898 252.544 342.669 252.535 342.435C250.166 327.801 234.948 319.17 222.78 320.565C212.884 321.701 207.465 329.066 208.244 340.034C208.828 348.6 211.326 360.605 219.892 369.237C227.745 377.251 239.523 380.042 248.479 376.018C248.681 375.926 248.9 375.875 249.122 375.867C249.344 375.86 249.566 375.896 249.774 375.974C249.982 376.053 250.172 376.172 250.334 376.324C250.496 376.476 250.627 376.659 250.718 376.862C250.894 377.267 250.904 377.725 250.746 378.137C250.589 378.55 250.275 378.884 249.874 379.068C246.682 380.611 243.197 381.451 239.653 381.534Z" fill="black"/>
<path d="M260.192 479.168C260.192 479.168 272.49 505.97 308.409 505.97C318.414 506.243 328.319 503.917 337.156 499.22C345.994 494.522 353.462 487.614 358.833 479.168L354.031 373.908H264.995L260.192 479.168Z" fill="white"/>
<path d="M308.409 507.658C271.841 507.658 258.797 480.142 258.667 479.883C258.567 479.635 258.512 479.371 258.505 479.104L263.177 373.844C263.202 373.413 263.391 373.009 263.705 372.713C264.018 372.418 264.434 372.253 264.865 372.254H354.031C354.462 372.253 354.877 372.418 355.191 372.713C355.504 373.009 355.693 373.413 355.718 373.844L360.52 479.104C360.521 479.407 360.455 479.706 360.326 479.98C354.768 488.655 347.075 495.756 337.984 500.603C328.893 505.449 318.709 507.879 308.409 507.658ZM261.88 478.844C263.502 482.089 275.864 504.316 308.409 504.316C318.024 504.53 327.536 502.296 336.05 497.823C344.564 493.35 351.801 486.786 357.081 478.747L352.376 375.596H266.584L261.88 478.844Z" fill="black"/>
<path d="M264.995 418.979C271.871 428.947 281.114 437.052 291.894 442.568C309.545 452.302 335.925 463.302 357.341 460.025L353.804 415.507C338.134 417.468 322.288 417.577 306.593 415.831C292.77 414.598 278.493 413.268 265.838 407.947C263.664 406.973 262.269 414.663 264.995 418.979Z" fill="black"/>
<path d="M349.164 462.23C327.618 462.23 304.126 451.165 291.115 443.962C280.05 438.382 270.591 430.074 263.632 419.821C262.497 417.924 261.882 415.762 261.847 413.552C261.813 411.342 262.361 409.162 263.437 407.231C263.79 406.785 264.279 406.467 264.83 406.327C265.381 406.186 265.963 406.23 266.487 406.452C279.142 411.806 293.808 412.942 306.722 414.207C322.297 415.957 338.024 415.859 353.576 413.915C353.793 413.883 354.014 413.896 354.226 413.951C354.438 414.007 354.636 414.105 354.809 414.24C354.983 414.378 355.127 414.55 355.233 414.745C355.339 414.94 355.405 415.155 355.426 415.376L358.93 459.894C358.968 460.301 358.847 460.706 358.593 461.026C358.339 461.347 357.972 461.557 357.567 461.613C354.786 462.033 351.976 462.239 349.164 462.23ZM265.676 409.632C265.194 411.014 265.006 412.48 265.123 413.939C265.24 415.397 265.661 416.815 266.357 418.101C273.043 427.908 282.109 435.857 292.705 441.204C306.722 448.991 333.297 461.386 355.588 458.693L352.343 417.42C337.087 419.138 321.686 419.138 306.43 417.42C293.418 416.284 278.72 414.986 265.676 409.632Z" fill="black"/>
<path d="M307.144 425.987H314.445C331.077 425.996 347.032 419.401 358.805 407.653C370.578 395.904 377.205 379.963 377.231 363.331V263.814H244.358V363.331C244.384 379.963 251.011 395.904 262.784 407.653C274.557 419.401 290.512 425.996 307.144 425.987Z" fill="white"/>
<path d="M377.231 263.814V363.331C377.231 371.575 375.607 379.737 372.451 387.353C369.295 394.969 364.67 401.888 358.839 407.716C353.009 413.544 346.087 418.165 338.469 421.317C330.852 424.469 322.688 426.089 314.445 426.085H307.144C298.9 426.089 290.737 424.469 283.119 421.317C275.502 418.165 268.58 413.544 262.749 407.716C256.919 401.888 252.293 394.969 249.138 387.353C245.982 379.737 244.358 371.575 244.358 363.331V263.814H377.231ZM377.231 260.569H244.358C243.497 260.569 242.672 260.911 242.063 261.52C241.455 262.128 241.113 262.954 241.113 263.814V363.331C241.139 380.861 248.114 397.666 260.51 410.062C272.906 422.458 289.711 429.433 307.241 429.459H314.542C332.055 429.408 348.836 422.421 361.21 410.028C373.585 397.635 380.547 380.844 380.573 363.331V263.814C380.573 262.954 380.231 262.128 379.623 261.52C379.014 260.911 378.189 260.569 377.328 260.569H377.231Z" fill="black"/>
<path d="M311.849 363.882C308.844 363.898 305.841 363.714 302.861 363.331C302.232 363.268 301.627 363.052 301.101 362.701C300.575 362.35 300.143 361.876 299.843 361.319C295.203 353.596 307.468 320.695 309.967 314.173C310.043 313.967 310.158 313.779 310.307 313.619C310.456 313.459 310.635 313.33 310.835 313.239C311.034 313.149 311.249 313.098 311.467 313.092C311.686 313.085 311.904 313.121 312.108 313.199C312.525 313.359 312.862 313.678 313.044 314.085C313.227 314.493 313.24 314.956 313.082 315.373C307.533 329.877 299.778 354.7 302.699 359.599C302.926 359.956 303.088 359.989 303.25 360.021C309.171 360.658 315.143 360.658 321.064 360.021C321.281 359.994 321.502 360.01 321.713 360.069C321.925 360.128 322.122 360.229 322.294 360.364C322.466 360.5 322.609 360.669 322.716 360.861C322.822 361.052 322.889 361.263 322.913 361.481C322.945 361.697 322.933 361.917 322.878 362.128C322.823 362.339 322.726 362.537 322.593 362.709C322.459 362.882 322.293 363.026 322.103 363.133C321.912 363.24 321.703 363.307 321.486 363.331C318.287 363.706 315.069 363.89 311.849 363.882Z" fill="black"/>
<path d="M420.127 575.408H419.9C419.457 575.351 419.054 575.121 418.781 574.768C418.507 574.416 418.384 573.969 418.439 573.526L426.422 513.563C426.532 513.18 426.777 512.85 427.111 512.633C427.445 512.416 427.846 512.327 428.241 512.383C428.635 512.438 428.997 512.634 429.259 512.934C429.52 513.234 429.665 513.619 429.666 514.017L421.717 573.948C421.664 574.339 421.476 574.699 421.186 574.965C420.895 575.232 420.521 575.389 420.127 575.408Z" fill="black"/>
<path d="M201.527 575.409C201.12 575.412 200.726 575.264 200.421 574.995C200.115 574.726 199.92 574.353 199.872 573.949L191.793 514.018C191.738 513.575 191.86 513.128 192.134 512.775C192.408 512.423 192.81 512.193 193.253 512.136C193.691 512.08 194.133 512.199 194.485 512.466C194.837 512.733 195.07 513.127 195.135 513.564L203.084 573.527C203.14 573.965 203.022 574.408 202.755 574.759C202.488 575.111 202.094 575.344 201.657 575.409H201.527Z" fill="black"/>
<circle cx="280.3" cy="294.3" r="6.3" fill="black"/>
<circle cx="340.9" cy="294.3" r="6.3" fill="black"/>
<path d="M341.36 385.322C340.966 385.161 340.526 385.153 340.127 385.301C321.329 392.523 281.803 385.212 281.403 385.15C281.193 385.108 280.977 385.109 280.767 385.151C280.557 385.194 280.358 385.279 280.182 385.4C280.005 385.521 279.854 385.676 279.739 385.856C279.623 386.036 279.545 386.237 279.508 386.448C279.466 386.659 279.466 386.876 279.508 387.087C279.55 387.298 279.633 387.498 279.752 387.677C279.871 387.856 280.025 388.009 280.204 388.129C280.382 388.248 280.583 388.331 280.793 388.373C282.441 388.675 321.611 395.908 341.175 388.297C341.477 388.18 341.738 387.976 341.924 387.711C342.11 387.445 342.214 387.13 342.221 386.806C342.227 386.482 342.138 386.163 341.963 385.89C341.789 385.616 341.537 385.401 341.239 385.271L341.36 385.322Z" fill="#231F20"/>
</svg>
