<svg width="71" height="152" viewBox="0 0 71 152" fill="none" xmlns="http://www.w3.org/2000/svg">
<path d="M27.1156 121.866C20.8591 121.866 15.467 120.755 10.9393 118.532C6.41161 116.309 2.91293 113.14 0.44327 109.024L11.3098 98.6514C14.7673 105.073 20.1182 108.283 27.3625 108.283C31.7256 108.283 35.1831 107.089 37.7351 104.702C40.3694 102.232 42.2216 98.4044 43.2918 93.2181L52.4296 47.653H21.5588L24.2755 34.1933H70.8285L59.2211 92.3538C57.0808 102.973 53.4174 110.547 48.2311 115.075C43.0449 119.602 36.0063 121.866 27.1156 121.866Z" fill="#FF3A43"/>
<path d="M30.6292 60.0845C34.2445 60.0845 37.0343 60.8815 38.9985 62.4757C40.9912 64.0414 41.9875 66.2475 41.9875 69.0942C41.9875 71.6278 41.4039 73.8197 40.2368 75.67C39.0981 77.4919 37.447 78.901 35.2836 79.8974C33.1486 80.8652 30.6292 81.3492 27.7256 81.3492H20.4239L18.6732 89.9746H13.1222L19.1002 60.0845H30.6292ZM27.9391 76.6521C30.6435 76.6521 32.7216 76.0543 34.1734 74.8587C35.6536 73.6347 36.3938 71.884 36.3938 69.6066C36.3938 68.0125 35.8387 66.8169 34.7285 66.0198C33.6467 65.1943 32.0811 64.7815 30.0314 64.7815H23.7118L21.3633 76.6521H27.9391Z" fill="black"/>
</svg>
