<svg width="956" height="717" viewBox="0 0 956 717" fill="none" xmlns="http://www.w3.org/2000/svg">
<path d="M826.247 538.396H129.753C129.609 538.396 129.466 538.367 129.333 538.312C129.199 538.257 129.078 538.176 128.976 538.074C128.874 537.971 128.793 537.85 128.738 537.717C128.682 537.584 128.654 537.441 128.654 537.296C128.654 537.152 128.682 537.009 128.738 536.875C128.793 536.742 128.874 536.621 128.976 536.519C129.078 536.417 129.199 536.336 129.333 536.28C129.466 536.225 129.609 536.197 129.753 536.197H826.247C826.539 536.197 826.819 536.313 827.025 536.519C827.231 536.725 827.347 537.005 827.347 537.296C827.347 537.588 827.231 537.867 827.025 538.074C826.819 538.28 826.539 538.396 826.247 538.396Z" fill="#D1D3D4"/>
<path d="M587.916 413.471L610.526 578.572L618.915 579.695L601.324 411.798L582.061 413.471" fill="#231F20"/>
<path d="M619.01 580.89H618.843L610.478 579.767C610.219 579.737 609.978 579.623 609.792 579.441C609.606 579.259 609.486 579.02 609.45 578.763L586.936 414.283L582.156 414.689C581.984 414.709 581.808 414.693 581.642 414.641C581.476 414.589 581.323 414.503 581.192 414.388C581.062 414.273 580.956 414.132 580.884 413.974C580.811 413.816 580.772 413.644 580.77 413.47C580.757 413.315 580.775 413.158 580.824 413.009C580.873 412.861 580.95 412.723 581.053 412.605C581.155 412.487 581.28 412.391 581.421 412.322C581.561 412.253 581.714 412.213 581.87 412.204L601.133 410.507C601.444 410.492 601.749 410.594 601.988 410.793C602.226 410.993 602.382 411.274 602.424 411.582L619.99 579.48C620.01 579.66 619.988 579.842 619.926 580.012C619.864 580.182 619.763 580.335 619.632 580.46C619.479 580.669 619.26 580.821 619.01 580.89V580.89ZM611.673 577.52L617.672 578.309L600.368 413.088L589.303 414.044L611.673 577.52Z" fill="#231F20"/>
<path d="M486.915 75.5488H725.724L702.732 430.846H463.947L486.915 75.5488Z" fill="white"/>
<path d="M702.661 432.088H463.947C463.776 432.087 463.607 432.05 463.451 431.98C463.295 431.91 463.154 431.809 463.039 431.682C462.922 431.563 462.831 431.421 462.774 431.264C462.716 431.107 462.692 430.94 462.705 430.774L485.696 75.4763C485.715 75.1656 485.851 74.8737 486.078 74.6604C486.304 74.4471 486.604 74.3286 486.915 74.3291H725.724C725.892 74.3286 726.059 74.363 726.214 74.4301C726.368 74.4973 726.507 74.5957 726.622 74.7192C726.736 74.8427 726.824 74.9886 726.879 75.1477C726.934 75.3068 726.956 75.4757 726.943 75.6436L703.951 430.917C703.933 431.243 703.787 431.548 703.545 431.767C703.304 431.986 702.986 432.101 702.661 432.088V432.088ZM465.19 429.698H701.513L724.41 76.7908H488.086L465.19 429.698Z" fill="#231F20"/>
<path d="M499.008 86.3516H712.244L690.662 420.043H477.403L499.008 86.3516Z" fill="white"/>
<path d="M690.71 421.166H477.403C477.254 421.163 477.107 421.129 476.972 421.067C476.836 421.006 476.715 420.917 476.614 420.807C476.408 420.588 476.296 420.296 476.304 419.995L497.814 86.279C497.826 85.9979 497.948 85.7329 498.154 85.5408C498.359 85.3487 498.632 85.2447 498.913 85.2513H712.22C712.371 85.2509 712.521 85.2803 712.66 85.3377C712.799 85.3951 712.926 85.4794 713.033 85.5859C713.232 85.8178 713.335 86.1171 713.32 86.4224L691.81 420.114C691.792 420.395 691.669 420.66 691.465 420.854C691.262 421.049 690.992 421.16 690.71 421.166V421.166ZM478.646 418.943H689.683L711.193 87.4501H500.156L478.646 418.943Z" fill="#D1D3D4"/>
<path d="M490.882 58.7946H723.955C724.864 58.7817 725.765 58.9588 726.602 59.3146C727.438 59.6705 728.191 60.1972 728.812 60.861C729.434 61.5248 729.909 62.311 730.208 63.1693C730.508 64.0276 730.625 64.939 730.551 65.8451L729.93 75.4051H482.78L483.378 65.8451C483.526 63.9465 484.378 62.1717 485.766 60.8677C487.154 59.5637 488.978 58.8245 490.882 58.7946Z" fill="white"/>
<path d="M729.93 76.6475H482.78C482.611 76.6477 482.443 76.6139 482.287 76.5482C482.131 76.4826 481.99 76.3863 481.872 76.2651C481.753 76.1427 481.661 75.9961 481.603 75.8353C481.546 75.6746 481.523 75.5033 481.537 75.333L482.159 65.773C482.331 63.5594 483.323 61.4898 484.941 59.9691C486.559 58.4485 488.686 57.5864 490.906 57.5514H723.979C725.057 57.5452 726.125 57.7622 727.116 58.1889C728.106 58.6156 728.998 59.2426 729.734 60.0306C730.47 60.8185 731.036 61.7504 731.394 62.7674C731.753 63.7845 731.897 64.8648 731.818 65.9403L731.197 75.5003C731.172 75.8172 731.027 76.1128 730.792 76.3262C730.556 76.5396 730.248 76.6545 729.93 76.6475V76.6475ZM484.071 74.0902H728.783L729.332 65.6774C729.392 64.9381 729.297 64.1945 729.053 63.4941C728.81 62.7936 728.422 62.1518 727.916 61.6097C727.41 61.0675 726.796 60.637 726.114 60.3456C725.432 60.0542 724.697 59.9084 723.955 59.9175H490.882C489.284 59.9429 487.753 60.5651 486.59 61.6618C485.427 62.7585 484.716 64.2505 484.596 65.8447L484.071 74.0902Z" fill="#231F20"/>
<path d="M483.426 430.917L458.617 631.439H467.843L499.749 430.917H483.426Z" fill="white"/>
<path d="M467.843 632.681H458.617C458.443 632.683 458.271 632.646 458.114 632.571C457.956 632.497 457.818 632.387 457.709 632.251C457.59 632.125 457.5 631.974 457.446 631.808C457.392 631.643 457.376 631.468 457.398 631.295L482.207 430.774C482.241 430.474 482.384 430.197 482.609 429.995C482.833 429.792 483.123 429.679 483.426 429.675H499.749C499.93 429.676 500.108 429.714 500.273 429.788C500.438 429.863 500.585 429.97 500.705 430.105C500.817 430.244 500.899 430.406 500.944 430.579C500.989 430.752 500.998 430.932 500.968 431.109L469.062 631.63C469.016 631.921 468.869 632.187 468.645 632.38C468.422 632.572 468.138 632.679 467.843 632.681V632.681ZM460.027 630.291H466.791L498.315 432.208H484.501L460.027 630.291Z" fill="#231F20"/>
<path d="M674.96 430.917L682.632 631.439H673.407L658.613 430.917H674.96Z" fill="white"/>
<path d="M682.632 632.681H673.407C673.096 632.682 672.796 632.563 672.569 632.35C672.343 632.137 672.206 631.845 672.188 631.534L657.394 431.013C657.381 430.845 657.402 430.676 657.455 430.516C657.508 430.356 657.593 430.208 657.705 430.081C657.82 429.954 657.96 429.853 658.116 429.783C658.272 429.713 658.442 429.676 658.613 429.675H674.96C675.28 429.675 675.586 429.8 675.814 430.023C676.042 430.247 676.173 430.551 676.179 430.87L683.851 631.391C683.863 631.557 683.84 631.724 683.782 631.881C683.724 632.038 683.634 632.18 683.517 632.299C683.402 632.418 683.265 632.514 683.113 632.579C682.961 632.645 682.798 632.68 682.632 632.681V632.681ZM674.554 630.291H681.342L673.765 432.208H659.951L674.554 630.291Z" fill="#231F20"/>
<path d="M299.324 588.49V627.972L318.181 633.35L317.727 625.272L326.235 633.804C326.235 633.804 376.88 642.886 376.593 636.194C376.306 629.502 371.215 625.774 364.834 622.404C357.975 618.795 339.93 608.613 339.93 608.613L337.229 579.67" fill="white"/>
<path d="M367.224 639.85C353.864 639.85 331.613 636.026 326.02 635.07C325.772 635.023 325.546 634.898 325.375 634.712L319.137 628.474L319.4 633.254C319.414 633.449 319.38 633.645 319.301 633.824C319.222 634.004 319.1 634.161 318.946 634.281C318.791 634.407 318.608 634.494 318.413 634.536C318.218 634.577 318.015 634.572 317.822 634.52L298.989 629.143C298.735 629.062 298.512 628.903 298.353 628.689C298.195 628.474 298.108 628.215 298.105 627.948V588.489C298.052 588.304 298.043 588.109 298.078 587.92C298.113 587.731 298.192 587.553 298.308 587.399C298.424 587.246 298.573 587.121 298.746 587.035C298.918 586.95 299.108 586.905 299.3 586.905C299.492 586.905 299.682 586.95 299.854 587.035C300.026 587.121 300.176 587.246 300.292 587.399C300.408 587.553 300.487 587.731 300.522 587.92C300.557 588.109 300.548 588.304 300.495 588.489V627.04L316.771 631.7L316.412 625.343C316.401 625.092 316.465 624.844 316.598 624.631C316.73 624.417 316.924 624.249 317.153 624.148C317.38 624.048 317.632 624.02 317.875 624.067C318.119 624.114 318.342 624.234 318.516 624.411L326.761 632.656C351.952 637.149 374.131 638.775 375.302 636.193C375.063 630.362 370.689 626.872 364.188 623.455C357.688 620.037 339.428 609.736 339.261 609.641C339.084 609.547 338.935 609.411 338.826 609.243C338.717 609.076 338.653 608.884 338.639 608.685L335.939 579.742C335.922 579.581 335.938 579.42 335.984 579.265C336.03 579.111 336.107 578.968 336.209 578.843C336.311 578.719 336.437 578.616 336.58 578.54C336.722 578.465 336.878 578.418 337.038 578.403C337.201 578.387 337.366 578.403 337.523 578.451C337.681 578.498 337.827 578.576 337.953 578.681C338.08 578.785 338.185 578.914 338.261 579.059C338.338 579.204 338.385 579.363 338.4 579.527L341.029 607.8C344.136 609.569 359.241 618.077 365.336 621.28C371.43 624.482 377.453 628.665 377.764 636.098C377.79 636.491 377.718 636.884 377.555 637.243C377.393 637.601 377.144 637.914 376.832 638.153C375.493 639.396 371.908 639.85 367.224 639.85Z" fill="#231F20"/>
<path d="M243.781 610.143L243.446 643.221L264.956 648.933L265.291 639.516L272.676 651.299C272.676 651.299 325.853 663.082 328.53 655.888C331.207 648.694 326.546 638.178 313.401 631.773C304.836 627.723 296.06 624.133 287.111 621.018L284.076 606.678" fill="white"/>
<path d="M318.874 659.377C304.893 659.377 281.375 654.597 272.365 652.494C272.207 652.459 272.058 652.392 271.926 652.297C271.795 652.203 271.684 652.083 271.6 651.944L266.318 643.579L266.127 648.98C266.123 649.167 266.077 649.35 265.991 649.516C265.905 649.681 265.783 649.825 265.633 649.936C265.482 650.047 265.309 650.122 265.125 650.155C264.942 650.188 264.753 650.179 264.574 650.128L243.064 644.416C242.801 644.346 242.568 644.191 242.404 643.974C242.239 643.758 242.152 643.492 242.155 643.221L242.49 610.119C242.49 609.957 242.522 609.796 242.585 609.647C242.648 609.497 242.74 609.362 242.855 609.249C242.971 609.135 243.108 609.046 243.259 608.986C243.41 608.926 243.571 608.897 243.733 608.9V608.9C243.895 608.9 244.055 608.932 244.205 608.995C244.354 609.058 244.49 609.15 244.603 609.266C244.717 609.381 244.806 609.518 244.866 609.669C244.926 609.82 244.955 609.981 244.952 610.143L244.617 642.288L263.737 647.355L264.024 639.468C264.034 639.205 264.128 638.953 264.291 638.747C264.454 638.541 264.679 638.392 264.932 638.321C265.188 638.26 265.457 638.28 265.701 638.378C265.945 638.477 266.153 638.649 266.294 638.871L273.464 650.199C305.371 657.226 326.283 658.421 327.383 655.457C329.773 648.956 325.614 639.11 312.852 632.896C304.363 628.869 295.667 625.295 286.801 622.188C286.598 622.114 286.417 621.989 286.275 621.826C286.133 621.663 286.035 621.467 285.988 621.256L282.953 606.797C282.889 606.477 282.953 606.145 283.132 605.872C283.311 605.599 283.59 605.408 283.909 605.339C284.067 605.304 284.231 605.301 284.391 605.331C284.551 605.36 284.703 605.421 284.839 605.51C284.975 605.599 285.091 605.715 285.182 605.849C285.273 605.984 285.335 606.136 285.367 606.295L288.258 620.085C297.007 623.171 305.59 626.704 313.975 630.673C328.076 637.532 332.569 648.765 329.749 656.342C328.817 658.54 324.658 659.377 318.874 659.377Z" fill="#231F20"/>
<path d="M231.376 369.542L239.215 614.708L298.87 614.971L298.201 601.157L343.635 602.854L354.055 336.034L231.376 369.542Z" fill="#231F20"/>
<path d="M298.87 616.142L239.12 615.903C238.811 615.903 238.514 615.784 238.291 615.57C238.068 615.356 237.937 615.064 237.925 614.756L230.181 369.566C230.18 369.298 230.266 369.037 230.425 368.821C230.584 368.606 230.809 368.448 231.065 368.371L353.744 334.911C353.924 334.862 354.113 334.856 354.295 334.893C354.478 334.931 354.649 335.01 354.796 335.126C354.946 335.239 355.066 335.388 355.145 335.559C355.225 335.73 355.26 335.917 355.25 336.106L344.806 602.925C344.793 603.23 344.665 603.518 344.448 603.731C344.23 603.944 343.939 604.066 343.634 604.072V604.072L299.515 602.447L300.113 614.947C300.124 615.11 300.101 615.273 300.043 615.426C299.985 615.579 299.895 615.717 299.778 615.831C299.658 615.945 299.515 616.032 299.358 616.086C299.201 616.14 299.035 616.159 298.87 616.142V616.142ZM240.363 613.537L297.723 613.776L297.125 601.228C297.113 601.062 297.136 600.895 297.194 600.738C297.252 600.581 297.342 600.439 297.46 600.32C297.573 600.202 297.711 600.111 297.864 600.053C298.017 599.995 298.181 599.972 298.344 599.985L342.583 601.611L352.908 337.611L232.595 370.45L240.363 613.537Z" fill="#231F20"/>
<path d="M462.8 127.985C463.111 127.364 463.517 126.67 464.186 126.551C465.597 126.336 465.931 128.439 465.644 129.825L462.131 146.149C467.813 136.252 474.203 126.779 481.251 117.804C481.403 117.54 481.609 117.311 481.857 117.134C482.104 116.957 482.386 116.835 482.685 116.776C484.095 116.776 484.071 118.879 483.498 120.17C479.871 128.395 475.23 136.135 469.684 143.209L482.781 124.472C484.056 122.358 485.671 120.468 487.561 118.879C487.899 119.965 487.994 121.112 487.842 122.239C487.689 123.367 487.291 124.447 486.676 125.404C484.002 131.051 480.911 136.492 477.427 141.68C482.193 133.99 487.7 126.786 493.87 120.17C494.169 122.299 494.038 124.466 493.484 126.544C492.929 128.621 491.964 130.566 490.644 132.263C487.949 135.627 485.55 139.217 483.474 142.994C486.958 137.879 490.884 133.081 495.209 128.654C495.523 128.236 495.926 127.892 496.389 127.648C496.852 127.405 497.363 127.267 497.886 127.244C498.441 127.374 498.932 127.698 499.27 128.158C499.608 128.619 499.769 129.184 499.726 129.754C499.595 130.891 499.193 131.981 498.555 132.932C489.528 148.457 478.45 162.694 465.621 175.259C464.832 176.024 454.244 166.512 453.264 165.436C452.001 164.24 451.025 162.774 450.408 161.148C449.792 159.521 449.551 157.776 449.703 156.044C451.089 146.603 458.689 136.23 462.8 127.985Z" fill="white"/>
<path d="M465.763 176.502C463.373 176.502 452.786 166.296 452.69 166.201C451.304 164.881 450.235 163.264 449.564 161.472C448.893 159.679 448.638 157.758 448.818 155.852C449.631 148.849 453.909 141.369 457.709 134.796C459.191 132.191 460.601 129.753 461.748 127.435C461.949 126.921 462.272 126.464 462.688 126.102C463.104 125.74 463.602 125.484 464.138 125.356C464.506 125.28 464.887 125.303 465.243 125.42C465.599 125.537 465.919 125.746 466.17 126.025C466.601 126.598 466.898 127.26 467.039 127.964C467.18 128.667 467.16 129.393 466.982 130.088L465.07 139.098C469.756 131.485 474.871 124.143 480.39 117.11C480.655 116.7 481.006 116.353 481.418 116.093C481.831 115.833 482.296 115.666 482.78 115.605C483.157 115.604 483.529 115.692 483.866 115.862C484.202 116.032 484.494 116.28 484.716 116.584C485.242 117.558 485.371 118.697 485.075 119.763C485.694 119.096 486.374 118.488 487.106 117.947C487.252 117.841 487.421 117.768 487.598 117.735C487.776 117.702 487.959 117.709 488.134 117.756C488.309 117.802 488.473 117.886 488.613 118.002C488.753 118.117 488.867 118.261 488.946 118.425C489.331 119.384 489.511 120.414 489.474 121.447C489.437 122.48 489.184 123.494 488.731 124.424C490.189 122.679 491.695 121.006 493.224 119.357C493.377 119.193 493.57 119.073 493.785 119.01C493.999 118.947 494.227 118.943 494.443 118.998C494.66 119.054 494.857 119.168 495.013 119.328C495.169 119.489 495.278 119.689 495.328 119.906C495.896 122.617 495.621 125.436 494.539 127.985C494.606 127.942 494.663 127.885 494.706 127.817C495.147 127.258 495.71 126.807 496.352 126.501C496.995 126.194 497.699 126.039 498.411 126.049C499.274 126.206 500.048 126.675 500.586 127.367C501.124 128.06 501.388 128.926 501.327 129.801C501.213 131.147 500.752 132.44 499.988 133.553C490.891 149.172 479.715 163.484 466.767 176.095C466.489 176.342 466.135 176.485 465.763 176.502V176.502ZM464.282 127.841C464.282 127.841 464.282 128.08 463.923 128.606C462.728 130.996 461.318 133.386 459.788 136.087C456.132 142.468 451.973 149.71 451.208 156.211C451.077 157.768 451.301 159.334 451.864 160.792C452.427 162.249 453.314 163.559 454.459 164.623C457.927 167.975 461.625 171.082 465.524 173.92C478.075 161.556 488.918 147.57 497.766 132.334C498.298 131.565 498.641 130.68 498.769 129.753C498.769 129.156 498.411 128.534 498.028 128.487C497.646 128.439 496.881 129.036 496.379 129.538C492.106 133.919 488.22 138.661 484.764 143.711C484.593 143.963 484.334 144.143 484.038 144.213C483.741 144.284 483.429 144.241 483.163 144.093C482.891 143.946 482.685 143.702 482.583 143.411C482.482 143.119 482.492 142.8 482.613 142.516C483.924 139.83 485.527 137.298 487.393 134.964C488.229 133.864 489.042 132.741 489.783 131.594C491.596 129.091 492.725 126.158 493.057 123.085C488.825 127.819 484.928 132.842 481.394 138.118C480.486 139.576 479.554 141.034 478.598 142.444C478.513 142.579 478.402 142.696 478.271 142.787C478.14 142.878 477.993 142.943 477.837 142.976C477.681 143.009 477.52 143.011 477.363 142.982C477.207 142.952 477.057 142.891 476.925 142.803C476.652 142.626 476.459 142.35 476.387 142.032C476.316 141.715 476.371 141.382 476.542 141.106C477.427 139.648 478.359 138.214 479.315 136.78C481.663 132.915 483.802 128.926 485.72 124.83C486.31 123.682 486.713 122.448 486.915 121.173C485.789 122.408 484.758 123.726 483.832 125.117L477.451 134.246C475.374 137.594 473.116 140.825 470.687 143.926C470.48 144.158 470.193 144.303 469.884 144.334C469.575 144.365 469.265 144.28 469.016 144.094C468.767 143.908 468.597 143.635 468.539 143.33C468.481 143.024 468.54 142.709 468.703 142.444L475.395 132.884C478.038 128.633 480.378 124.2 482.398 119.62C482.618 119.108 482.693 118.546 482.613 117.995C482.508 118.178 482.38 118.347 482.231 118.496C475.193 127.438 468.804 136.871 463.111 146.722C462.965 146.976 462.732 147.169 462.456 147.266C462.179 147.362 461.877 147.356 461.605 147.248C461.331 147.141 461.104 146.941 460.964 146.683C460.824 146.425 460.78 146.126 460.84 145.838L464.329 129.538C464.502 128.959 464.485 128.339 464.282 127.77V127.841Z" fill="#231F20"/>
<path d="M440.525 160.225L446.094 153.557L471.261 172.749L464.114 182.309L440.525 160.225Z" fill="#231F20"/>
<path d="M464.115 183.505C463.964 183.505 463.814 183.476 463.675 183.418C463.536 183.361 463.409 183.277 463.302 183.17L439.76 161.087C439.556 160.866 439.442 160.575 439.442 160.274C439.442 159.973 439.556 159.682 439.76 159.461L445.329 152.793C445.532 152.563 445.815 152.417 446.121 152.386C446.427 152.355 446.733 152.441 446.978 152.626L472.121 171.746C472.247 171.84 472.352 171.958 472.432 172.093C472.512 172.228 472.565 172.378 472.587 172.533C472.609 172.688 472.601 172.846 472.562 172.999C472.523 173.151 472.454 173.293 472.36 173.419L465.19 182.979C464.973 183.24 464.666 183.41 464.33 183.457L464.115 183.505ZM442.15 160.131L463.947 180.541L469.612 172.989L446.285 155.207L442.15 160.131Z" fill="#231F20"/>
<path d="M317.512 162.52C317.512 162.52 319.663 163.476 323.367 165.053C344.041 174.016 397.601 200.903 399.847 200.019C402.739 198.776 438.876 155.35 438.876 155.35L469.946 181.64C469.946 181.64 431.348 252.192 409.838 251.189C388.328 250.185 330.394 222.27 330.394 222.27" fill="#FF3A43"/>
<path d="M385.34 263.306C385.34 263.306 394.709 260.032 396.788 255.348C398.868 250.663 403.815 234.794 406.348 234.411C408.882 234.029 410.148 236.801 408.738 242.322C407.328 247.843 406.133 257.69 406.109 257.809C406.372 255.969 447.265 257.809 451.113 258.096C452.738 258.096 454.937 258.981 454.555 260.486C454.292 261.466 453.121 261.849 452.165 262.064C443.203 263.927 434.109 265.077 424.966 265.505L443.728 265.649C446.524 265.649 449.894 266.007 451.208 268.493C444.644 269.433 438.048 270.094 431.419 270.476L450.348 272.126C451.591 272.126 453.288 273.249 452.547 274.253C445.951 275.193 439.322 275.902 432.662 276.38C437.996 276.527 443.269 277.552 448.269 279.415C449.058 279.75 449.942 280.323 449.918 281.16C449.894 281.996 448.651 282.665 447.647 282.857C441.672 284.004 435.148 282.713 429.029 282.45C421.118 282.116 413.208 281.781 405.297 281.208C402.907 281.04 384.002 284.864 383.787 287.661L385.34 263.306Z" fill="white"/>
<path d="M384.002 288.952C383.681 288.927 383.382 288.779 383.168 288.538C382.954 288.297 382.842 287.983 382.855 287.661V287.661C382.855 287.111 384.193 263.259 384.193 263.259C384.208 263.014 384.296 262.778 384.445 262.582C384.594 262.387 384.797 262.24 385.03 262.16C387.42 261.299 394.231 258.312 395.761 254.87C396.311 253.627 397.075 251.572 397.96 249.158C402.023 238.188 404.078 233.551 406.349 233.217C406.924 233.107 407.518 233.146 408.074 233.33C408.631 233.514 409.131 233.837 409.527 234.268C410.937 235.798 411.176 238.594 410.244 242.633C409.312 246.672 408.332 253.006 407.854 256.209C412.037 255.611 422.911 255.515 451.424 256.878C452.199 256.88 452.965 257.041 453.675 257.349C454.386 257.657 455.027 258.107 455.559 258.67C455.793 258.98 455.956 259.338 456.035 259.718C456.113 260.099 456.106 260.492 456.013 260.869C455.535 262.757 453.336 263.259 452.619 263.259C450.42 263.737 448.197 264.143 445.975 264.526C447.265 264.487 448.544 264.778 449.69 265.372C450.836 265.966 451.811 266.843 452.523 267.92C452.617 268.096 452.667 268.293 452.667 268.493C452.667 268.693 452.617 268.89 452.523 269.067C452.433 269.245 452.301 269.399 452.139 269.515C451.977 269.632 451.789 269.707 451.591 269.736L445.76 270.477L450.659 270.907C451.335 270.946 451.991 271.146 452.574 271.491C453.156 271.837 453.647 272.317 454.005 272.891C454.155 273.227 454.212 273.597 454.17 273.963C454.128 274.329 453.989 274.677 453.766 274.97C453.675 275.107 453.555 275.223 453.415 275.31C453.274 275.396 453.117 275.452 452.954 275.472C449.942 275.902 446.907 276.285 443.872 276.619C445.616 277.021 447.32 277.581 448.962 278.292C450.994 279.153 451.352 280.348 451.352 281.208C451.352 282.068 450.994 283.598 448.102 284.076C443.63 284.697 439.094 284.697 434.622 284.076C432.782 283.909 430.966 283.741 429.173 283.67C421.86 283.359 413.566 283.024 405.416 282.427C403.026 282.26 386.774 285.868 385.293 287.876C385.251 288.184 385.096 288.466 384.857 288.665C384.618 288.864 384.313 288.966 384.002 288.952V288.952ZM386.535 264.167C385.866 276.117 385.556 282.021 385.388 284.936C391.85 282.416 398.631 280.807 405.536 280.156C413.638 280.754 421.907 281.088 429.221 281.399C431.037 281.399 432.901 281.638 434.766 281.829C439.008 282.415 443.31 282.415 447.552 281.829C448.027 281.795 448.479 281.611 448.843 281.304C448.568 281.059 448.253 280.865 447.911 280.73C443.038 278.932 437.903 277.947 432.71 277.814C432.402 277.784 432.116 277.64 431.908 277.41C431.7 277.181 431.585 276.881 431.587 276.571C431.586 276.26 431.705 275.96 431.918 275.734C432.132 275.507 432.423 275.371 432.734 275.352C438.542 274.922 444.421 274.325 450.205 273.536L431.467 271.887C431.157 271.863 430.867 271.72 430.658 271.489C430.45 271.258 430.337 270.956 430.344 270.644C430.344 270.333 430.462 270.033 430.675 269.807C430.889 269.58 431.181 269.444 431.491 269.425C437.179 269.091 442.916 268.565 448.604 267.824C447.072 267.276 445.45 267.025 443.824 267.083L425.086 266.916C424.927 266.919 424.769 266.89 424.621 266.832C424.474 266.773 424.339 266.686 424.226 266.574C424.112 266.463 424.022 266.33 423.96 266.184C423.899 266.037 423.867 265.88 423.867 265.721C423.861 265.399 423.979 265.087 424.197 264.851C424.416 264.615 424.717 264.473 425.038 264.454C434.108 264.021 443.13 262.878 452.021 261.036C453.36 260.773 453.503 260.439 453.503 260.367C453.213 260.059 452.861 259.816 452.469 259.655C452.077 259.494 451.656 259.419 451.233 259.435C427.333 258.288 409.193 258.049 407.066 258.814C406.938 258.93 406.786 259.017 406.62 259.066C406.455 259.116 406.28 259.128 406.11 259.1C405.952 259.083 405.8 259.034 405.661 258.957C405.523 258.88 405.402 258.776 405.304 258.651C405.206 258.527 405.134 258.384 405.092 258.231C405.049 258.079 405.038 257.919 405.058 257.762V257.762C405.416 255.372 406.564 247.174 407.711 242.227C408.739 237.782 407.878 236.419 407.711 236.109C407.581 235.973 407.416 235.877 407.235 235.83C407.053 235.784 406.862 235.789 406.683 235.846C405.297 236.587 401.903 245.764 400.278 250.186C399.37 252.576 398.605 254.727 398.031 256.041C396 260.176 388.925 263.235 386.535 264.167ZM407.52 257.977C407.465 258.241 407.332 258.483 407.137 258.67C407.346 258.495 407.483 258.248 407.52 257.977V257.977Z" fill="#231F20"/>
<path d="M275.185 159.795C275.185 159.795 227.433 174.972 219.881 194.641C212.328 214.311 229.178 369.733 229.178 369.733L365.694 369.972C365.694 369.972 355.107 209.244 347.387 187.041C339.667 164.838 298.751 152.96 275.185 159.795Z" fill="#FF3A43"/>
<path d="M273.512 172.486L313.688 286.322C313.688 286.322 318.874 196.481 316.508 179.321C314.142 162.161 273.512 172.486 273.512 172.486Z" fill="white"/>
<path d="M314.771 67.5299C317.902 69.7048 320.937 72.4533 323.972 74.1263C329.552 77.4295 335.871 79.2786 342.351 79.5038C344.048 79.5038 341.897 94.1306 341.539 95.469C340.082 100.881 337.51 105.929 333.986 110.287C330.743 114.103 327.271 117.719 323.59 121.114C318.977 125.511 311.52 126.659 305.521 127.83C300.216 128.857 294.599 130.698 289.293 131.271C283.987 131.845 277.606 132.729 272.683 131.008C266.23 128.618 261.999 120.875 259.49 114.948C256.03 107.467 255.294 99.0128 257.411 91.0475C258.228 88.0409 259.837 85.3088 262.071 83.1366C264.891 80.6032 267.807 80.7466 271.225 80.3403C270.651 76.0622 271.894 73.6483 275.336 70.6369C283.51 63.4669 298.471 61.8178 308.796 64.5185C310.944 65.1751 312.965 66.1935 314.771 67.5299V67.5299Z" fill="white"/>
<path d="M280.782 133.23C278.239 133.294 275.704 132.938 273.277 132.179C267.947 130.291 263.263 124.674 259.367 115.449C255.787 107.697 255.035 98.9368 257.24 90.6882C258.112 87.4639 259.847 84.5386 262.259 82.2276C264.675 80.2248 267.725 79.1486 270.863 79.1923C270.767 77.3218 271.157 75.4582 271.994 73.783C272.832 72.1077 274.089 70.6778 275.643 69.6323C284.462 61.9126 300.045 60.5981 310.202 63.251C312.506 63.9341 314.668 65.0271 316.584 66.4775V66.4775C317.779 67.2901 318.974 68.2222 320.145 69.1065C321.854 70.553 323.667 71.8711 325.57 73.05C330.959 76.2705 337.077 78.0713 343.352 78.2841C343.615 78.2766 343.876 78.3362 344.111 78.4575C344.345 78.5788 344.544 78.7576 344.69 78.9772C346.483 81.3672 343.854 95.7072 343.83 95.8745C342.313 101.44 339.66 106.632 336.038 111.123C332.774 114.957 329.278 118.589 325.57 121.997C321.029 126.323 314.242 127.614 308.267 128.761L306.88 129.048C304.897 129.43 302.889 129.932 300.858 130.434C297.465 131.346 294.016 132.033 290.533 132.489L289.338 132.633C286.499 132.989 283.642 133.188 280.782 133.23V133.23ZM299.686 64.6372C291.537 64.6372 282.67 66.836 277.149 71.6638C273.803 74.5557 272.942 76.5872 273.444 80.2678C273.468 80.433 273.457 80.6012 273.411 80.7617C273.366 80.9223 273.288 81.0715 273.181 81.1999C273.076 81.3296 272.945 81.4367 272.797 81.5147C272.65 81.5927 272.488 81.6401 272.321 81.654H271.317C268.638 81.5159 266.001 82.3664 263.908 84.044C261.833 86.0566 260.339 88.5913 259.582 91.3813C257.571 99.0828 258.298 107.244 261.638 114.469C265.247 123.049 269.453 128.211 274.09 129.836C278.726 131.462 284.247 130.697 288.955 130.171L290.15 130.052C293.522 129.595 296.859 128.917 300.141 128.02C302.22 127.518 304.275 127.016 306.283 126.61L307.669 126.347C313.333 125.272 319.739 123.957 323.754 120.205C327.388 116.842 330.82 113.267 334.031 109.498C337.437 105.277 339.928 100.393 341.344 95.1575C342.265 90.4335 342.722 85.6306 342.706 80.8175C336.237 80.5022 329.943 78.6066 324.375 75.2966C322.321 74.0874 320.363 72.7211 318.52 71.2097C317.372 70.3254 316.13 69.4411 315.054 68.6285C313.367 67.367 311.475 66.4049 309.462 65.7844C306.265 64.9908 302.98 64.6054 299.686 64.6372V64.6372Z" fill="#231F20"/>
<path d="M313.719 154.884L315.894 178.449C315.894 178.449 305.832 190.399 290.536 186.958C275.24 183.516 272.802 173.168 272.802 173.168L272.085 130.148C272.085 130.148 283.247 123.91 279.423 99.4839C279.423 99.4839 303.06 106.248 325.621 102.902C325.621 102.902 326.505 130.602 324.928 142.408C323.351 154.215 313.719 154.884 313.719 154.884Z" fill="white"/>
<path d="M296.033 188.918C294.097 188.914 292.166 188.706 290.273 188.297C274.404 184.783 271.703 173.957 271.583 173.574C271.571 173.487 271.571 173.399 271.583 173.312L270.89 130.292C270.878 130.068 270.93 129.846 271.04 129.651C271.15 129.456 271.314 129.297 271.512 129.192C271.512 129.192 281.86 122.93 278.227 99.7951C278.196 99.5907 278.217 99.3818 278.287 99.1873C278.357 98.9928 278.475 98.8189 278.629 98.6812C278.783 98.5436 278.969 98.4466 279.17 98.399C279.372 98.3515 279.581 98.3549 279.781 98.4089C280.02 98.4089 303.442 105.053 325.478 101.803C325.647 101.779 325.819 101.789 325.983 101.835C326.148 101.88 326.301 101.959 326.434 102.066C326.701 102.265 326.888 102.553 326.96 102.878C326.96 104.025 327.82 130.817 326.243 142.6C324.88 152.638 318.021 155.195 315.153 155.841L317.208 178.259C317.227 178.422 317.211 178.587 317.161 178.743C317.112 178.9 317.03 179.044 316.922 179.167C314.289 182.131 311.078 184.525 307.485 186.202C303.893 187.879 299.996 188.803 296.033 188.918V188.918ZM274.021 173.12C274.332 174.268 277.2 182.872 290.751 185.883C303.585 188.703 312.739 180.051 314.651 178.139L312.62 155.004C312.598 154.841 312.612 154.675 312.662 154.518C312.712 154.361 312.795 154.217 312.906 154.096C313.012 153.969 313.143 153.864 313.291 153.79C313.44 153.716 313.601 153.674 313.767 153.666V153.666C314.101 153.666 322.395 152.973 323.805 142.337C325.167 132.251 324.689 110.12 324.546 104.408C305.999 106.798 286.903 102.687 281.024 101.229C283.701 121.688 275.837 129.144 273.447 130.889L274.021 173.12Z" fill="#231F20"/>
<path d="M282 129.311C281.435 127.234 280.211 125.397 278.51 124.077C276.876 122.919 275.058 122.047 273.133 121.496C272.107 121.095 271.006 120.924 269.906 120.994C269.139 121.119 268.406 121.404 267.755 121.83C266.129 122.665 264.857 124.056 264.17 125.75C263.824 127.179 263.824 128.67 264.17 130.1C264.395 131.677 264.821 133.219 265.437 134.688C266.081 136.153 267.013 137.474 268.178 138.572C269.342 139.67 270.715 140.523 272.215 141.08C273.715 141.637 275.312 141.888 276.911 141.816C278.509 141.745 280.077 141.353 281.522 140.663" fill="white"/>
<path d="M275.288 143.006C273.722 143.01 272.168 142.735 270.699 142.194C269.051 141.582 267.539 140.65 266.251 139.453C264.963 138.255 263.925 136.815 263.195 135.215C262.536 133.637 262.078 131.983 261.832 130.292C261.484 128.653 261.542 126.955 262 125.344C262.785 123.37 264.252 121.742 266.134 120.755C266.928 120.257 267.814 119.924 268.74 119.776C270.024 119.664 271.317 119.852 272.516 120.325C274.575 120.927 276.521 121.864 278.276 123.098C280.173 124.597 281.539 126.666 282.171 129.001C282.257 129.318 282.213 129.656 282.049 129.94C281.886 130.225 281.616 130.433 281.299 130.519C280.982 130.604 280.644 130.56 280.36 130.397C280.075 130.233 279.867 129.963 279.781 129.646C279.304 127.83 278.246 126.218 276.77 125.057C275.257 123.975 273.567 123.166 271.775 122.667C270.924 122.331 270.012 122.177 269.098 122.213C268.498 122.335 267.923 122.562 267.401 122.883C266.045 123.584 264.973 124.732 264.366 126.133C264.067 127.374 264.067 128.668 264.366 129.909C264.574 131.379 264.967 132.816 265.537 134.187C266.755 136.81 268.951 138.852 271.655 139.875C274.363 140.869 277.354 140.748 279.973 139.541C280.271 139.402 280.611 139.387 280.92 139.499C281.23 139.611 281.482 139.841 281.622 140.138C281.69 140.284 281.729 140.442 281.735 140.603C281.742 140.764 281.717 140.924 281.662 141.075C281.606 141.227 281.521 141.365 281.412 141.483C281.302 141.601 281.171 141.697 281.024 141.764C279.23 142.603 277.269 143.028 275.288 143.006V143.006Z" fill="#231F20"/>
<path d="M315.245 166.619C312.442 166.986 309.593 166.749 306.889 165.924C304.185 165.1 301.688 163.707 299.566 161.839C292.731 155.506 293.257 151.753 293.257 151.753C293.257 151.753 304.179 157.442 314.097 155.243L315.245 166.619Z" fill="#231F20"/>
<path d="M311.688 167.982C306.553 168.05 301.583 166.171 297.778 162.724C290.608 156.175 291.014 152.064 291.062 151.61C291.094 151.423 291.17 151.246 291.283 151.093C291.395 150.94 291.543 150.816 291.712 150.73C291.882 150.644 292.069 150.599 292.259 150.598C292.449 150.597 292.637 150.641 292.807 150.726C292.807 150.726 303.466 156.199 312.835 154.12C312.998 154.078 313.169 154.073 313.335 154.106C313.5 154.139 313.656 154.209 313.791 154.311C313.929 154.407 314.045 154.532 314.131 154.676C314.217 154.82 314.273 154.981 314.293 155.147L315.44 166.476C315.469 166.778 315.385 167.08 315.204 167.323C315.023 167.566 314.758 167.733 314.46 167.791C313.541 167.915 312.615 167.979 311.688 167.982V167.982ZM293.882 153.833C295.166 156.597 297.043 159.045 299.379 161.003C301.225 162.628 303.376 163.869 305.707 164.653C308.038 165.436 310.502 165.748 312.954 165.568L312.046 156.701C305.844 157.363 299.578 156.374 293.882 153.833V153.833Z" fill="#231F20"/>
<path d="M308.983 116.549C308.983 116.549 317.611 127.997 315.819 130.172C314.026 132.347 308.649 131.271 308.649 131.271" fill="white"/>
<path d="M310.517 132.729C309.491 132.723 308.467 132.627 307.458 132.442C307.146 132.379 306.871 132.195 306.692 131.932C306.514 131.668 306.445 131.345 306.502 131.032C306.53 130.877 306.589 130.729 306.676 130.597C306.763 130.465 306.876 130.352 307.008 130.265C307.14 130.178 307.288 130.119 307.443 130.09C307.598 130.062 307.758 130.065 307.912 130.1C309.441 130.387 312.907 130.626 313.911 129.407C314.245 128.307 311.043 122.619 307.027 117.29C306.932 117.164 306.862 117.021 306.821 116.868C306.781 116.716 306.771 116.557 306.792 116.4C306.835 116.084 307.001 115.798 307.255 115.605C307.508 115.411 307.828 115.327 308.144 115.369C308.46 115.412 308.746 115.578 308.939 115.832C313.122 121.4 317.711 128.523 315.751 130.913C315.057 131.569 314.232 132.07 313.329 132.383C312.427 132.697 311.468 132.814 310.517 132.729V132.729Z" fill="#231F20"/>
<path d="M295.211 119.635C296.254 119.347 296.769 117.916 296.361 116.441C295.953 114.965 294.776 114.003 293.733 114.291C292.69 114.58 292.175 116.01 292.583 117.486C292.991 118.961 294.168 119.924 295.211 119.635Z" fill="#231F20"/>
<path d="M315.92 118.624C316.963 118.335 317.478 116.905 317.07 115.429C316.662 113.953 315.485 112.991 314.442 113.279C313.399 113.568 312.884 114.998 313.292 116.474C313.7 117.95 314.877 118.912 315.92 118.624Z" fill="#231F20"/>
<path d="M308.314 138.848C308.135 139.355 307.991 139.874 307.884 140.401C307.635 141.265 307.579 142.173 307.719 143.061C307.86 143.949 308.193 144.795 308.697 145.54C309.232 146.271 310.034 146.761 310.929 146.905C311.824 147.048 312.74 146.832 313.477 146.305C314.234 145.537 314.677 144.514 314.719 143.437C314.915 142.164 314.741 140.861 314.218 139.684C313.96 139.099 313.561 138.587 313.056 138.195C312.551 137.803 311.956 137.542 311.326 137.438C310.69 137.361 310.047 137.508 309.506 137.852C308.966 138.196 308.562 138.717 308.362 139.326" fill="#231F20"/>
<path d="M310.612 148.144H310.23C309.569 148.072 308.929 147.871 308.347 147.551C307.764 147.231 307.251 146.799 306.836 146.28C306.228 145.397 305.82 144.393 305.638 143.336C305.457 142.28 305.507 141.197 305.784 140.162C305.896 139.636 306.039 139.11 306.214 138.584C306.313 138.284 306.517 138.03 306.788 137.867C307.211 137.299 307.776 136.852 308.426 136.571C309.076 136.29 309.789 136.185 310.493 136.266C311.322 136.397 312.105 136.732 312.773 137.241C313.44 137.75 313.971 138.417 314.317 139.182C314.941 140.558 315.148 142.087 314.914 143.579C314.86 144.961 314.279 146.27 313.289 147.236C312.535 147.851 311.585 148.174 310.612 148.144ZM308.222 140.138C308.231 140.313 308.231 140.488 308.222 140.664C308.022 141.356 307.972 142.082 308.075 142.795C308.178 143.508 308.432 144.191 308.82 144.798C309.036 145.067 309.304 145.29 309.608 145.454C309.912 145.618 310.245 145.72 310.588 145.754C310.809 145.784 311.033 145.768 311.247 145.706C311.461 145.644 311.66 145.539 311.831 145.396C312.371 144.827 312.678 144.077 312.691 143.293C312.852 142.241 312.72 141.166 312.309 140.186C312.105 139.793 311.81 139.456 311.448 139.202C311.086 138.948 310.668 138.786 310.23 138.728C309.879 138.687 309.525 138.764 309.223 138.945C308.92 139.127 308.686 139.403 308.557 139.731C308.456 139.898 308.317 140.037 308.15 140.138H308.222Z" fill="#231F20"/>
<path d="M274.85 81.0933C276.379 83.8008 277.752 86.5937 278.961 89.4583Z" fill="white"/>
<path d="M277.148 93.1503C276.912 93.1491 276.682 93.0781 276.486 92.9462C276.291 92.8144 276.139 92.6276 276.049 92.4094C274.844 89.5939 273.496 86.8418 272.01 84.1639C271.855 83.888 271.816 83.5621 271.901 83.2574C271.986 82.9528 272.189 82.6943 272.464 82.5387C272.741 82.3901 273.065 82.3544 273.368 82.439C273.671 82.5236 273.929 82.722 274.089 82.9928C275.617 85.7574 277.005 88.5971 278.248 91.5012C278.31 91.6452 278.343 91.8003 278.344 91.9572C278.345 92.1141 278.314 92.2696 278.254 92.4146C278.194 92.5595 278.105 92.6908 277.993 92.8008C277.881 92.9107 277.748 92.9971 277.602 93.0547C277.46 93.1207 277.305 93.1534 277.148 93.1503Z" fill="#231F20"/>
<path d="M374.656 257.57L384.718 255.419L393.944 290.122L378.313 291.365L374.656 257.57Z" fill="#231F20"/>
<path d="M378.313 292.56C378.021 292.557 377.74 292.449 377.521 292.256C377.301 292.063 377.159 291.798 377.118 291.509L373.462 257.69C373.431 257.398 373.51 257.105 373.682 256.867C373.854 256.629 374.107 256.462 374.394 256.399L384.48 254.248C384.777 254.189 385.085 254.246 385.342 254.405C385.6 254.565 385.787 254.816 385.866 255.109L395.091 289.812C395.132 289.979 395.136 290.153 395.103 290.323C395.07 290.492 395.001 290.652 394.9 290.792C394.806 290.937 394.679 291.058 394.53 291.146C394.38 291.233 394.212 291.283 394.04 291.293L378.409 292.56H378.313ZM375.923 258.503L379.341 290.098L392.391 289.047L383.834 256.83L375.923 258.503Z" fill="#231F20"/>
<path d="M227.05 224.206C227.05 224.206 238.451 329.056 252.647 328.817C266.844 328.578 387.276 292.967 387.276 292.967L378.648 253.603L275.591 259.722C275.591 259.722 276.93 199.087 265.697 196.172C254.464 193.256 231.83 196.913 227.05 224.206Z" fill="#FF3A43"/>
<path d="M265.529 321.527C260.152 321.527 256.28 320.81 254.535 319.137C245.812 310.629 233.025 271.863 226.955 253.221C225.64 249.229 224.565 245.716 224.087 244.736C223.968 244.608 223.877 244.458 223.82 244.293C223.762 244.129 223.739 243.954 223.752 243.78C223.776 243.489 223.898 243.215 224.098 243.003C224.297 242.79 224.563 242.651 224.852 242.609C226.023 242.466 226.023 242.466 229.297 252.456C234.89 269.449 247.963 309.29 256.256 317.368C264.167 325.064 336.178 307.187 382.663 293.277C382.977 293.188 383.313 293.226 383.599 293.382C383.886 293.539 384.099 293.801 384.193 294.114C384.241 294.267 384.258 294.429 384.243 294.589C384.228 294.75 384.181 294.906 384.106 295.048C384.03 295.19 383.927 295.316 383.803 295.418C383.678 295.52 383.535 295.597 383.38 295.643C373.199 298.75 295.739 321.527 265.529 321.527Z" fill="#231F20"/>
<path d="M280.204 263.809C279.922 263.809 279.649 263.711 279.431 263.532C279.213 263.354 279.064 263.105 279.009 262.829L264.382 196.435C264.318 196.115 264.383 195.783 264.562 195.51C264.741 195.237 265.019 195.046 265.338 194.977C265.495 194.942 265.658 194.938 265.816 194.966C265.974 194.994 266.126 195.053 266.261 195.139C266.397 195.226 266.514 195.338 266.606 195.471C266.697 195.603 266.762 195.752 266.796 195.909L281.136 261.251L368.849 253.866C369.117 253.917 369.361 254.054 369.543 254.257C369.725 254.46 369.835 254.717 369.857 254.988C369.879 255.26 369.81 255.531 369.663 255.76C369.515 255.989 369.297 256.164 369.04 256.256L280.276 263.713L280.204 263.809Z" fill="#231F20"/>
<path d="M299.563 600.679C299.248 600.655 298.955 600.509 298.745 600.272C298.536 600.036 298.426 599.728 298.44 599.412L308.979 391.482C308.982 391.325 309.017 391.17 309.082 391.027C309.147 390.885 309.241 390.756 309.357 390.651C309.474 390.546 309.611 390.466 309.759 390.415C309.908 390.365 310.066 390.346 310.222 390.359C310.379 390.362 310.534 390.397 310.677 390.462C310.82 390.527 310.948 390.62 311.053 390.737C311.159 390.853 311.239 390.99 311.289 391.139C311.34 391.288 311.359 391.445 311.346 391.602L300.806 599.412C300.816 599.579 300.791 599.747 300.732 599.903C300.674 600.06 300.583 600.203 300.466 600.322C300.349 600.441 300.208 600.535 300.052 600.596C299.897 600.658 299.73 600.686 299.563 600.679Z" fill="white"/>
<path d="M241.079 400.182C240.815 400.178 240.559 400.087 240.352 399.922C240.146 399.757 239.999 399.528 239.936 399.271C239.873 399.014 239.898 398.744 240.005 398.502C240.112 398.26 240.297 398.061 240.53 397.935C244.583 395.719 247.988 392.483 250.407 388.547C252.826 384.611 254.175 380.111 254.32 375.493C254.353 375.186 254.493 374.9 254.716 374.686C254.939 374.472 255.23 374.343 255.539 374.322C255.697 374.322 255.853 374.354 255.998 374.416C256.144 374.478 256.275 374.568 256.384 374.682C256.494 374.796 256.579 374.931 256.635 375.078C256.691 375.226 256.716 375.383 256.71 375.541C256.543 380.58 255.067 385.489 252.427 389.784C249.787 394.08 246.074 397.614 241.653 400.039C241.476 400.131 241.279 400.18 241.079 400.182V400.182Z" fill="white"/>
<path d="M462.776 145.24C464.757 147.052 466.252 149.331 467.124 151.87C467.997 154.408 468.219 157.125 467.771 159.771" fill="white"/>
<path d="M467.771 160.991H467.532C467.373 160.962 467.221 160.902 467.086 160.814C466.95 160.726 466.833 160.613 466.742 160.479C466.651 160.346 466.587 160.195 466.555 160.037C466.522 159.879 466.521 159.716 466.552 159.557C466.964 157.12 466.76 154.619 465.959 152.282C465.157 149.944 463.784 147.844 461.964 146.173C461.844 146.065 461.748 145.934 461.679 145.788C461.61 145.643 461.571 145.485 461.563 145.324C461.555 145.163 461.579 145.002 461.634 144.851C461.688 144.699 461.772 144.559 461.88 144.44C461.988 144.321 462.119 144.224 462.265 144.155C462.41 144.087 462.568 144.047 462.729 144.04C462.89 144.032 463.051 144.056 463.202 144.11C463.354 144.165 463.493 144.248 463.613 144.357C465.74 146.313 467.344 148.769 468.279 151.504C469.214 154.238 469.45 157.162 468.966 160.011C468.915 160.289 468.767 160.541 468.549 160.72C468.33 160.9 468.054 160.996 467.771 160.991Z" fill="#231F20"/>
<path d="M784.47 515.595C789.926 510.699 796.1 506.669 802.777 503.645C803.327 523.219 795.392 541.215 788.055 553.548H764.155" fill="white"/>
<path d="M788.055 554.815H764.155C763.971 554.868 763.776 554.877 763.587 554.842C763.398 554.807 763.219 554.728 763.066 554.612C762.912 554.496 762.787 554.346 762.702 554.174C762.616 554.002 762.571 553.812 762.571 553.62C762.571 553.428 762.616 553.238 762.702 553.066C762.787 552.894 762.912 552.744 763.066 552.628C763.219 552.512 763.398 552.433 763.587 552.398C763.776 552.363 763.971 552.372 764.155 552.425H787.315C793.959 541.12 801.655 524.151 801.655 505.653C795.761 508.552 790.286 512.234 785.379 516.599C785.13 516.778 784.824 516.858 784.519 516.825C784.214 516.792 783.933 516.647 783.728 516.419C783.524 516.191 783.411 515.895 783.411 515.588C783.411 515.282 783.525 514.987 783.73 514.759C789.284 509.762 795.581 505.658 802.395 502.594C802.58 502.526 802.777 502.503 802.972 502.525C803.166 502.547 803.353 502.614 803.518 502.721C803.682 502.827 803.82 502.971 803.919 503.139C804.019 503.308 804.078 503.498 804.092 503.693C804.666 523.865 796.301 542.339 789.179 554.289C789.054 554.468 788.885 554.61 788.687 554.702C788.49 554.795 788.272 554.833 788.055 554.815V554.815Z" fill="#231F20"/>
<path d="M750.269 520.877C756.125 490.261 780.12 470.998 780.12 470.998C784.594 485.412 786.074 500.588 784.47 515.595C783.241 528.537 780.473 541.286 776.225 553.572H750.46" fill="white"/>
<path d="M776.225 554.815H750.46C750.201 554.741 749.972 554.584 749.81 554.368C749.647 554.153 749.559 553.89 749.559 553.62C749.559 553.35 749.647 553.087 749.81 552.871C749.972 552.656 750.201 552.499 750.46 552.425H775.269C779.312 540.485 781.966 528.119 783.18 515.571C784.706 501.35 783.464 486.969 779.523 473.22C774.36 477.833 756.364 495.567 751.464 521.14C751.401 521.458 751.215 521.739 750.947 521.922C750.679 522.105 750.35 522.176 750.03 522.12C749.871 522.091 749.719 522.031 749.584 521.943C749.448 521.855 749.331 521.741 749.24 521.608C749.149 521.474 749.085 521.324 749.053 521.166C749.02 521.007 749.019 520.844 749.05 520.686C754.93 489.974 779.117 470.281 779.356 470.089C779.512 469.966 779.695 469.882 779.891 469.845C780.086 469.807 780.288 469.818 780.479 469.874C780.668 469.93 780.841 470.031 780.982 470.169C781.124 470.306 781.23 470.476 781.291 470.663C785.822 485.238 787.327 500.585 785.713 515.762C784.452 528.791 781.66 541.627 777.396 554.002C777.305 554.24 777.144 554.444 776.935 554.589C776.726 554.734 776.479 554.813 776.225 554.815V554.815Z" fill="#231F20"/>
<path d="M737.578 553.572H760.307C760.546 546.856 759.016 536.651 751.703 523.434C751.201 522.55 750.723 521.689 750.245 520.877C737.076 498.578 725.031 498.817 725.031 498.817C719.94 522.287 730.695 543.199 737.578 553.572Z" fill="white"/>
<path d="M760.307 554.814H737.578C737.376 554.81 737.177 554.757 736.999 554.662C736.82 554.567 736.667 554.43 736.551 554.265C729.572 543.725 718.625 522.478 723.836 498.554C723.89 498.281 724.036 498.036 724.249 497.858C724.462 497.679 724.729 497.579 725.007 497.574C725.485 497.574 737.937 497.574 751.297 520.231L752.755 522.812C760.379 536.626 761.741 547.19 761.526 553.619C761.514 553.936 761.381 554.237 761.154 554.459C760.928 554.681 760.624 554.808 760.307 554.814V554.814ZM738.247 552.424H759.112C759.112 546.21 757.511 536.579 750.628 524.103C750.126 523.218 749.672 522.382 749.194 521.569C738.654 503.74 729.022 500.729 726.011 500.227C721.637 522.358 731.579 542.123 738.247 552.353V552.424Z" fill="#231F20"/>
<path d="M741.713 589.638H786.31L793.504 553.597H734.519L741.713 589.638Z" fill="#231F20"/>
<path d="M562.273 243.29L551.565 242.97L551.154 256.701L540.272 256.376L540.683 242.645L507.52 241.653L507.753 233.88L538.712 195.822L550.717 196.181L521.536 232.564L541.313 233.155L541.677 220.978L552.213 221.293L551.849 233.47L562.557 233.791L562.273 243.29ZM591.779 258.781C586.943 258.636 582.661 257.298 578.934 254.766C575.208 252.177 572.321 248.518 570.272 243.789C568.226 239.002 567.299 233.385 567.492 226.937C567.684 220.488 568.945 214.965 571.272 210.367C573.601 205.711 576.701 202.231 580.574 199.927C584.448 197.565 588.803 196.456 593.639 196.601C598.475 196.745 602.756 198.112 606.482 200.702C610.267 203.235 613.183 206.895 615.23 211.682C617.278 216.411 618.206 221.999 618.013 228.448C617.82 234.896 616.559 240.448 614.23 245.104C611.903 249.702 608.773 253.181 604.842 255.541C600.97 257.846 596.616 258.926 591.779 258.781ZM592.071 249.022C596.389 249.151 599.839 247.468 602.422 243.972C605.062 240.479 606.488 235.191 606.7 228.109C606.911 221.028 605.804 215.664 603.378 212.019C601.009 208.375 597.665 206.489 593.347 206.36C589.087 206.232 585.636 207.915 582.996 211.409C580.414 214.905 579.017 220.193 578.805 227.275C578.593 234.357 579.672 239.719 582.041 243.363C584.467 247.008 587.811 248.895 592.071 249.022ZM678.996 246.781L668.287 246.461L667.877 260.192L656.995 259.867L657.406 246.136L624.243 245.144L624.476 237.371L655.435 199.313L667.439 199.672L638.259 236.055L658.035 236.646L658.4 224.469L668.936 224.784L668.571 236.961L679.28 237.282L678.996 246.781Z" fill="#FF3A43"/>
</svg>
